<?xml version="1.0" encoding="UTF-8" standalone="no"?>
<!-- Created with Inkscape (http://www.inkscape.org/) -->

<svg
   xmlns:dc="http://purl.org/dc/elements/1.1/"
   xmlns:cc="http://creativecommons.org/ns#"
   xmlns:rdf="http://www.w3.org/1999/02/22-rdf-syntax-ns#"
   xmlns:svg="http://www.w3.org/2000/svg"
   xmlns="http://www.w3.org/2000/svg"
   xmlns:sodipodi="http://sodipodi.sourceforge.net/DTD/sodipodi-0.dtd"
   xmlns:inkscape="http://www.inkscape.org/namespaces/inkscape"
   inkscape:version="0.91 r13725"
   version="1.1"
   id="svg2"
   viewBox="0 0 1800 1200.0001"
   height="1200"
   width="1800"
   sodipodi:docname="Chaosah.svg"
   inkscape:export-filename="/home/eirexe/PepperCarrotCustom/PNG/Flags/Chaosah.png"
   inkscape:export-xdpi="224.358"
   inkscape:export-ydpi="224.358">
  <sodipodi:namedview
     inkscape:window-maximized="1"
     inkscape:window-y="27"
     inkscape:window-x="1920"
     inkscape:window-height="1001"
     inkscape:window-width="1920"
     units="px"
     showgrid="false"
     inkscape:current-layer="g4828"
     inkscape:document-units="px"
     inkscape:cy="587.01982"
     inkscape:cx="822.0996"
     inkscape:zoom="1"
     inkscape:pageshadow="2"
     inkscape:pageopacity="0.0"
     borderopacity="1.0"
     bordercolor="#666666"
     pagecolor="#ffffff"
     id="base"
     showguides="true"
     inkscape:guide-bbox="true">
    <sodipodi:guide
       inkscape:color="rgb(0,0,255)"
       inkscape:label=""
       id="guide3473"
       orientation="1,0"
       position="900,555.63231" />
    <sodipodi:guide
       id="guide3475"
       orientation="1,0"
       position="599.52837,512.89136" />
    <sodipodi:guide
       id="guide3477"
       orientation="1,0"
       position="1200.2119,344.2379" />
    <sodipodi:guide
       id="guide3479"
       orientation="0,1"
       position="1272.987,623.78679" />
    <sodipodi:guide
       id="guide3481"
       orientation="0,1"
       position="1152.8503,475.92622" />
    <sodipodi:guide
       id="guide3483"
       orientation="1,0"
       position="701.1825,812.07799" />
    <sodipodi:guide
       position="801.1039,770.4922"
       orientation="1,0"
       id="guide3743" />
    <sodipodi:guide
       position="999.79152,762.98366"
       orientation="1,0"
       id="guide3745" />
    <sodipodi:guide
       position="935.26109,778.02294"
       orientation="0,1"
       id="guide3747" />
    <sodipodi:guide
       position="774.34717,863.78925"
       orientation="1,0"
       id="guide3749" />
    <sodipodi:guide
       position="925.86764,705.73419"
       orientation="1,0"
       id="guide3751" />
    <sodipodi:guide
       position="841.32657,797.62667"
       orientation="0,1"
       id="guide3753" />
    <sodipodi:guide
       position="1025.5199,742.08277"
       orientation="1,0"
       id="guide3755" />
    <sodipodi:guide
       id="guide4415"
       orientation="1,0"
       position="900,513.17046" />
    <sodipodi:guide
       position="850.3967,875.59711"
       orientation="1,0"
       id="guide4373" />
    <sodipodi:guide
       position="951.19803,815.1163"
       orientation="1,0"
       id="guide4375" />
    <sodipodi:guide
       id="guide4587"
       orientation="1,0"
       position="791.95959,653.01316" />
    <sodipodi:guide
       id="guide4589"
       orientation="1,0"
       position="1007.2736,695.08602" />
    <sodipodi:guide
       id="guide4591"
       orientation="0,1"
       position="944.51788,825.19368" />
    <sodipodi:guide
       id="guide4593"
       orientation="0,1"
       position="840.74996,844.63912" />
  </sodipodi:namedview>
  <defs
     id="defs4" />
  <metadata
     id="metadata7">
    <rdf:RDF>
      <cc:Work
         rdf:about="">
        <dc:format>image/svg+xml</dc:format>
        <dc:type
           rdf:resource="http://purl.org/dc/dcmitype/StillImage" />
        <dc:title />
      </cc:Work>
    </rdf:RDF>
  </metadata>
  <g
     inkscape:groupmode="layer"
     id="layer2"
     inkscape:label="Layer 2" />
  <g
     inkscape:label="Layer 1"
     inkscape:groupmode="layer"
     id="layer1"
     transform="translate(0,147.63824)">
    <rect
       style="fill:#8d9fa1;fill-opacity:1;stroke:#768687;stroke-width:4.94243383;stroke-miterlimit:4;stroke-dasharray:none;stroke-opacity:1;shape-rendering:crispEdges"
       id="rect4259"
       width="1795.0577"
       height="1195.0577"
       x="2.4711559"
       y="-145.16705"
       inkscape:export-xdpi="224.35829"
       inkscape:export-ydpi="224.35829" />
    <g
       id="g4828"
       transform="matrix(1.3113541,0,0,1.3113541,-279.9199,-29.007759)"
       style="stroke-width:2.00000024;stroke-miterlimit:4;stroke-dasharray:none"
       inkscape:export-xdpi="224.35829"
       inkscape:export-ydpi="224.35829">
      <path
         style="fill:#768687;fill-opacity:1;fill-rule:evenodd;stroke:#768687;stroke-width:1.00000012;stroke-linecap:butt;stroke-linejoin:miter;stroke-miterlimit:4;stroke-dasharray:none;stroke-opacity:1"
         d="m 1081.9612,373.31541 c -3.556,-20.16705 -55.9152,3.53164 -72.7909,-26.10911 l 4.3412,24.62019 c 16.8757,29.64076 69.2349,5.94206 72.7909,26.10913 z"
         id="path4940-0"
         inkscape:connector-curvature="0" />
      <path
         inkscape:connector-curvature="0"
         style="fill:#768687;fill-opacity:1;fill-rule:evenodd;stroke:#768687;stroke-width:1.00000012;stroke-linecap:butt;stroke-linejoin:miter;stroke-miterlimit:4;stroke-dasharray:none;stroke-opacity:1"
         d="m 717.58312,373.31974 c 3.556,-20.16705 55.9152,3.53164 72.7909,-26.10911 l -4.3412,24.62019 c -16.87571,29.64075 -69.2349,5.94206 -72.7909,26.10912 z"
         id="path4940" />
      <path
         style="fill:#97acae;fill-opacity:1;fill-rule:evenodd;stroke:#768687;stroke-width:1.00000012;stroke-linecap:butt;stroke-linejoin:miter;stroke-miterlimit:4;stroke-dasharray:none;stroke-opacity:1"
         d="m 1082.1895,595.79102 c 0.5934,3.36519 -0.1734,7.95128 -2.6895,14.21093 -17.594,43.77266 -112.54613,90.23872 -179.51953,90.22852 l 0,0.004 C 833.00922,700.22653 738.09066,653.77004 720.5,610.00586 c -2.51601,-6.25964 -3.28282,-10.84575 -2.68945,-14.21094 l -4.33985,24.61914 c -0.59337,3.36518 0.17149,7.95326 2.6875,14.21289 17.59406,43.77266 116.84301,90.352 183.81641,90.3418 l -0.0996,-0.30664 0.15039,0.24609 c 66.97342,0.0102 166.2224,-46.51444 183.8164,-90.28711 2.5161,-6.25963 3.2809,-10.84575 2.6875,-14.21093 l -4.3398,-24.61914 z"
         id="path4936"
         inkscape:connector-curvature="0"
         transform="translate(-0.22789556,-222.47483)" />
      <path
         inkscape:connector-curvature="0"
         id="text1330"
         d="m 1160.9257,372.91119 c -5e-4,38.27373 -12.088,69.02624 -36.2626,92.25774 -23.9632,23.06442 -57.469,34.59665 -100.5169,34.59665 -26.93241,0 -51.74343,-6.68525 -74.43368,-20.05603 -22.69085,-13.53782 -40.50401,-31.83894 -53.4394,-54.90338 -16.32901,25.57144 -35.09645,44.45761 -56.30231,56.65827 -20.99425,12.20071 -46.0175,18.30114 -75.06971,18.30114 -38.5952,0 -69.34415,-11.44857 -92.24665,-34.34595 -22.69055,-22.89716 -34.03585,-51.97841 -34.03585,-87.24373 0,-39.44338 12.40554,-70.44662 37.21679,-93.00986 25.02316,-22.5628 58.21061,-33.8443 99.56272,-33.84455 26.93166,2.5e-4 51.74281,6.76915 74.43361,20.30675 22.6902,13.37095 40.50335,31.58845 53.43944,54.65269 15.90425,-25.06985 34.67166,-43.78874 56.30232,-56.15689 21.6298,-12.5348 46.65302,-18.8023 75.06972,-18.80255 38.5947,2.5e-4 69.2375,11.449 91.9286,34.34595 22.9021,22.8976 34.3534,51.97884 34.3539,87.24375 M 881.32282,356.36497 c -12.72396,-19.55442 -28.0984,-34.17868 -46.12345,-43.87259 -17.81326,-9.86055 -36.26255,-14.79109 -55.34791,-14.79129 -27.78016,2e-4 -49.30441,6.85275 -64.57267,20.5574 -15.05644,13.70511 -22.58465,33.67771 -22.58455,59.91741 -1e-4,23.7331 6.57385,42.2013 19.72166,55.40478 13.35975,13.03643 31.1729,19.55463 53.4395,19.55463 18.02496,0 33.18741,-3.09183 45.48717,-9.27591 12.29934,-6.35094 25.44714,-19.2203 39.44335,-38.60785 5.30129,-7.35376 10.4968,-15.04183 15.58649,-23.06445 5.30135,-8.02221 10.28475,-16.62966 14.95041,-25.82213 M 1106.85,372.91119 c 0,-24.06703 -6.6803,-42.53522 -20.0398,-55.4048 -13.3603,-13.0362 -31.0675,-19.5544 -53.1214,-19.5546 -18.6616,2e-4 -34.03621,3.25929 -46.12327,9.77729 -12.08785,6.5184 -25.1296,19.22051 -39.1253,38.10648 -6.99835,9.19248 -12.61801,17.38216 -16.85887,24.56863 -4.02949,7.0198 -8.48284,15.12565 -13.35995,24.31793 12.29925,19.38757 27.46167,34.01182 45.48717,43.87256 18.2369,9.86096 36.89822,14.79134 55.98432,14.79134 27.7796,0 49.1977,-6.76891 64.2546,-20.30674 15.2678,-13.70488 22.9019,-33.76093 22.9025,-60.16809"
         style="font-style:normal;font-variant:normal;font-weight:normal;font-stretch:normal;font-size:256px;line-height:100%;font-family:Tahoma;text-align:start;writing-mode:lr-tb;text-anchor:start;fill:#373c3d;fill-opacity:1;stroke:#768687;stroke-width:2.00000024;stroke-linecap:butt;stroke-linejoin:miter;stroke-miterlimit:4;stroke-dasharray:none;stroke-opacity:1;shape-rendering:crispEdges" />
      <path
         inkscape:connector-curvature="0"
         style="fill:#768687;fill-opacity:1;fill-rule:evenodd;stroke:#768687;stroke-width:1.00000012;stroke-linecap:butt;stroke-linejoin:miter;stroke-miterlimit:4;stroke-dasharray:none;stroke-opacity:1"
         d="m 599.52831,365.07995 c -5.40858,35.71774 14.88622,1.57992 23.14895,9.62195 l -4.3412,24.62019 c -8.26273,-8.04203 -28.55753,26.09579 -23.14895,-9.62195 z"
         id="path4948" />
      <path
         inkscape:connector-curvature="0"
         style="fill:#768687;fill-opacity:1;fill-rule:evenodd;stroke:#768687;stroke-width:1.00000012;stroke-linecap:butt;stroke-linejoin:miter;stroke-miterlimit:4;stroke-dasharray:none;stroke-opacity:1"
         d="m 790.37402,347.21063 c 0.64049,-1.12496 1.04313,-2.19562 1.22254,-3.2131 l -4.34121,24.62019 c -0.1794,1.01748 -0.58205,2.08814 -1.22253,3.2131 z"
         id="path4942" />
      <path
         sodipodi:nodetypes="sscccs"
         inkscape:connector-curvature="0"
         style="fill:#97acae;fill-opacity:1;fill-rule:evenodd;stroke:#768687;stroke-width:1.00000012;stroke-linecap:butt;stroke-linejoin:miter;stroke-miterlimit:4;stroke-dasharray:none;stroke-opacity:1"
         d="m 791.59656,343.99753 c 3.91965,-22.22945 -98.71463,-19.0727 -155.56321,-2.1365 -20.3792,6.07132 -34.87451,13.91343 -36.46789,22.99163 l -4.3412,24.6202 c 6.03817,-34.40219 197.35587,-51.05344 192.03109,-20.85514 z"
         id="path4944" />
      <path
         inkscape:connector-curvature="0"
         style="fill:#768687;fill-opacity:1;fill-rule:evenodd;stroke:#768687;stroke-width:1.00000012;stroke-linecap:butt;stroke-linejoin:miter;stroke-miterlimit:4;stroke-dasharray:none;stroke-opacity:1"
         d="m 599.56546,364.85266 c -0.0133,0.0757 -0.0257,0.15144 -0.0371,0.22729 l -4.3412,24.62019 c 0.0115,-0.0758 0.0239,-0.15161 0.0371,-0.22728 z"
         id="path4946" />
      <path
         inkscape:connector-curvature="0"
         style="fill:#768687;fill-opacity:1;fill-rule:evenodd;stroke:#768687;stroke-width:1.00000012;stroke-linecap:butt;stroke-linejoin:miter;stroke-miterlimit:4;stroke-dasharray:none;stroke-opacity:1"
         d="m 622.67726,374.7019 c 1.25145,1.21802 1.6506,2.48225 1.42693,3.75075 l -4.3412,24.62019 c 0.22367,-1.2685 -0.17549,-2.53273 -1.42693,-3.75075 z"
         id="path4950" />
      <path
         style="fill:#768687;fill-opacity:1;fill-rule:evenodd;stroke:#768687;stroke-width:1.00000012;stroke-linecap:butt;stroke-linejoin:miter;stroke-miterlimit:4;stroke-dasharray:none;stroke-opacity:1"
         d="m 1200.016,365.07562 c 5.4086,35.71775 -14.8862,1.57992 -23.1489,9.62195 l 4.3412,24.6202 c 8.2627,-8.04203 28.5575,26.09579 23.1489,-9.62195 z"
         id="path4948-0"
         inkscape:connector-curvature="0" />
      <path
         style="fill:#768687;fill-opacity:1;fill-rule:evenodd;stroke:#768687;stroke-width:1.00000012;stroke-linecap:butt;stroke-linejoin:miter;stroke-miterlimit:4;stroke-dasharray:none;stroke-opacity:1"
         d="m 1009.1703,347.2063 c -0.6405,-1.12496 -1.0431,-2.19562 -1.2225,-3.2131 l 4.3412,24.62019 c 0.1794,1.01748 0.582,2.08814 1.2225,3.2131 z"
         id="path4942-1"
         inkscape:connector-curvature="0" />
      <path
         style="fill:#97acae;fill-opacity:1;fill-rule:evenodd;stroke:#768687;stroke-width:1.00000012;stroke-linecap:butt;stroke-linejoin:miter;stroke-miterlimit:4;stroke-dasharray:none;stroke-opacity:1"
         d="m 1007.9478,343.9932 c -5.3248,-30.19831 185.9929,-13.54706 192.0311,20.85513 l 4.3412,24.62021 c -6.0382,-34.4022 -197.3559,-51.05345 -192.0311,-20.85515 z"
         id="path4944-7"
         inkscape:connector-curvature="0" />
      <path
         style="fill:#768687;fill-opacity:1;fill-rule:evenodd;stroke:#768687;stroke-width:1.00000012;stroke-linecap:butt;stroke-linejoin:miter;stroke-miterlimit:4;stroke-dasharray:none;stroke-opacity:1"
         d="m 1199.9789,364.84833 c 0.013,0.0757 0.026,0.15144 0.037,0.22729 l 4.3412,24.6202 c -0.012,-0.0758 -0.024,-0.15161 -0.037,-0.22728 z"
         id="path4946-8"
         inkscape:connector-curvature="0" />
      <path
         style="fill:#768687;fill-opacity:1;fill-rule:evenodd;stroke:#768687;stroke-width:1.00000012;stroke-linecap:butt;stroke-linejoin:miter;stroke-miterlimit:4;stroke-dasharray:none;stroke-opacity:1"
         d="m 1176.8671,374.69757 c -1.2515,1.21802 -1.6506,2.48225 -1.427,3.75075 l 4.3412,24.6202 c -0.2236,-1.2685 0.1755,-2.53273 1.427,-3.75075 z"
         id="path4950-8"
         inkscape:connector-curvature="0" />
      <path
         inkscape:connector-curvature="0"
         style="fill:#97acae;fill-opacity:1;fill-rule:evenodd;stroke:#768687;stroke-width:1.00000012;stroke-linecap:butt;stroke-linejoin:miter;stroke-miterlimit:4;stroke-dasharray:none;stroke-opacity:1"
         d="m 624.10419,378.45265 c -1.25312,7.10681 -22.05585,14.34767 -22.05585,14.34767 l -4.3412,24.62019 c 0,0 20.80272,-7.24085 22.05585,-14.34767 z"
         id="path4952" />
      <path
         style="fill:#97acae;fill-opacity:1;fill-rule:evenodd;stroke:#768687;stroke-width:1.00000012;stroke-linecap:butt;stroke-linejoin:miter;stroke-miterlimit:4;stroke-dasharray:none;stroke-opacity:1"
         d="m 1175.4401,378.44832 c 1.2532,7.10682 22.0559,14.34768 22.0559,14.34768 l 4.3412,24.62019 c 0,0 -20.8027,-7.24085 -22.0559,-14.34767 z"
         id="path4952-6"
         inkscape:connector-curvature="0" />
      <g
         id="text4211"
         style="font-style:normal;font-weight:normal;font-size:40px;line-height:125%;font-family:sans-serif;letter-spacing:0px;word-spacing:0px;fill:#373c3d;fill-opacity:1;stroke:none;stroke-width:1.00000012;stroke-linecap:butt;stroke-linejoin:miter;stroke-miterlimit:4;stroke-dasharray:none;stroke-opacity:1"
         transform="matrix(0.99999937,0.00112521,-0.00112521,0.99999937,-1.7436909,-21.489341)">
        <path
           id="path4300"
           style="font-style:normal;font-variant:normal;font-weight:normal;font-stretch:normal;font-size:22.68750191px;font-family:Augustus;-inkscape-font-specification:Augustus;fill:#373c3d;fill-opacity:1;stroke-width:1.00000012;stroke-miterlimit:4;stroke-dasharray:none"
           d="m 1028.9224,354.55122 q 0.049,0.0144 0.093,0.006 0.067,-0.012 0.134,-0.0239 0.045,-0.008 0.089,-0.0159 0.067,-0.012 0.1116,-0.0199 3.5066,-0.62552 6.4855,1.21681 2.9789,1.84232 3.7615,5.71266 0.7419,3.90064 -1.583,6.7582 -2.3289,2.83522 -6.0668,3.4559 -3.5105,0.60318 -6.4096,-1.43775 -2.8807,-2.06724 -3.5182,-5.64083 -0.6215,-3.48425 1.4234,-6.36099 2.0449,-2.87675 5.4829,-3.62831 l 0,-0.0223 z m 0.2008,1.25474 q -3.0177,0.65352 -4.422,3.1164 -1.3859,2.43657 -0.8576,5.26912 0.5307,2.7169 2.8093,4.63806 2.2785,1.92116 5.2139,1.5819 0.067,-0.012 0.1117,-0.0199 0.067,-0.012 0.1117,-0.0199 0.049,0.0144 0.093,0.006 0.067,-0.012 0.134,-0.0239 2.7248,-0.48607 4.3884,-2.78778 1.6595,-2.32405 1.1097,-5.40627 -0.5379,-3.01521 -3.007,-4.97151 -2.4469,-1.96027 -5.4358,-1.40406 -0.022,0.004 -0.067,0.012 -0.022,0.004 -0.045,0.008 -0.045,0.008 -0.067,0.012 -0.022,0.004 -0.067,0.012 l 0,-0.0223 z"
           inkscape:connector-curvature="0" />
        <path
           id="path4302"
           style="font-style:normal;font-variant:normal;font-weight:normal;font-stretch:normal;font-size:22.68750191px;font-family:Augustus;-inkscape-font-specification:Augustus;fill:#373c3d;fill-opacity:1;stroke-width:1.00000012;stroke-miterlimit:4;stroke-dasharray:none"
           d="m 1041.3491,353.13607 4.1209,-0.26136 q 0.3637,-3.3e-4 0.658,-0.019 0.317,-0.0201 0.5887,-0.0373 0.1797,-0.0341 0.3382,-0.0442 0.1585,-0.01 0.317,-0.0201 0.3623,-0.023 0.7245,-0.046 0.385,-0.0244 0.8619,-0.0319 1.6345,-0.0355 2.9401,0.83651 1.3283,0.87055 1.5294,2.60824 0,0.0226 0,0.0679 0,0.0226 0,0.0453 0,0.0226 0,0.0679 0,0.0226 0,0.0453 0.078,1.22267 -0.5457,2.14879 -0.6006,0.92468 -1.6727,1.58374 l -0.679,0.40679 1.3406,0.34691 q 1.3646,0.36811 2.2174,1.26881 0.8739,0.87663 1.0762,2.27325 0,0.0679 0.01,0.13585 0,0.0679 0.01,0.13585 0.1077,1.69815 -1.1761,2.9617 -1.2853,1.24091 -2.8699,1.70514 -0.2915,0.0639 -0.583,0.12791 -0.2688,0.0625 -0.5405,0.0797 -0.091,0.006 -0.2038,0.0129 -0.09,0.006 -0.2037,0.0129 -0.2491,0.0158 -0.477,0.008 -0.2264,0.0144 -0.4316,0.005 -0.068,0.004 -0.1359,0.009 -0.045,0.003 -0.1146,-0.0155 -0.2717,0.0172 -0.5901,0.0147 -0.2958,-0.004 -0.6581,0.019 l -4.8001,0.30444 0.4866,-0.21273 q 0.1557,-0.0553 0.3551,-0.13619 0.1995,-0.0808 0.399,-0.1617 0.3763,-0.16026 0.7059,-0.3403 0.3507,-0.20411 0.4751,-0.39386 0.042,-0.0482 0.062,-0.0949 0.02,-0.0467 0.041,-0.0708 0.1215,-0.23503 0.1538,-0.44168 0.054,-0.23073 0.036,-0.50244 l -0.784,-12.36253 q -0.019,-0.29435 -0.08,-0.54054 -0.038,-0.24762 -0.2339,-0.46256 -0.1474,-0.17252 -0.5183,-0.28539 -0.3496,-0.13695 -0.7658,-0.24696 -0.2548,-0.0748 -0.5082,-0.1269 -0.2322,-0.0762 -0.419,-0.15528 l -0.4687,-0.22035 0,0 z m 6.2395,15.2219 q 0.211,0.10028 0.6469,0.16357 0.4572,0.0392 0.9553,0.008 0.2944,-0.0187 0.5646,-0.0585 0.2929,-0.0413 0.5603,-0.12647 1.6497,-0.51383 2.3394,-1.4669 0.6898,-0.95307 0.5882,-2.19694 -0.01,-0.11321 -0.014,-0.22642 -0.01,-0.13586 -0.04,-0.27027 -0.232,-1.5084 -1.5912,-2.14965 -1.3592,-0.64126 -2.9273,-0.63274 -0.1146,-0.0155 -0.2505,-0.007 -0.1132,0.007 -0.249,0.0158 l -1.4958,0.0721 0.3748,5.90957 q 0.02,0.31699 0.1279,0.58295 0.1304,0.26452 0.4122,0.40578 l 0,-0.0226 z m 0.8273,-14.55618 q -0.066,0.0269 -0.1344,0.0313 -0.068,0.004 -0.1585,0.01 -0.1132,0.007 -0.2265,0.0144 -0.091,0.006 -0.2037,0.0129 -0.3835,0.0471 -0.7429,0.11531 -0.3368,0.0668 -0.4683,0.14337 -0.1952,0.14878 -0.2261,0.37807 -0.01,0.22786 0.01,0.49956 0,0 0,0.0226 0,0.0226 0,0.0453 l 0.3417,5.38879 1.0642,-0.0675 q 0.2279,0.008 0.4302,-0.0273 0.225,-0.037 0.4485,-0.0966 1.2763,-0.30828 2.2859,-1.23617 1.0096,-0.92789 0.9249,-2.26377 0,-0.0453 0,-0.0679 0,-0.0453 0,-0.0679 -0.025,-0.0439 -0.027,-0.0665 0,-0.0453 -0.01,-0.0906 -0.2648,-1.66546 -1.229,-2.17263 -0.9643,-0.50717 -2.0766,-0.48209 l 0,-0.0226 z"
           inkscape:connector-curvature="0" />
        <path
           id="path4304"
           style="font-style:normal;font-variant:normal;font-weight:normal;font-stretch:normal;font-size:22.68750191px;font-family:Augustus;-inkscape-font-specification:Augustus;fill:#373c3d;fill-opacity:1;stroke-width:1.00000012;stroke-miterlimit:4;stroke-dasharray:none"
           d="m 1056.5888,352.27457 11.3662,-0.0768 0,3.72082 -0.3238,-0.90533 q -0.046,-0.0904 -0.092,-0.20357 -0.024,-0.11328 -0.07,-0.20372 -0.1155,-0.31685 -0.2532,-0.5428 -0.1151,-0.24879 -0.3886,-0.42845 -0.1822,-0.11221 -0.4096,-0.17874 -0.2273,-0.0665 -0.4543,-0.0877 -0.1362,9.2e-4 -0.2723,0.002 -0.1136,-0.0219 -0.2497,-0.021 l -2.7906,-0.004 q -0.045,0.023 -0.091,0.0233 -0.045,3e-4 -0.1135,7.6e-4 -0.2722,0.002 -0.5443,0.0264 -0.2494,0.0244 -0.3846,0.16141 -0.09,0.0914 -0.1113,0.31839 -0.021,0.20433 -0.02,0.45389 0,0 10e-5,0.0227 0,0 2e-4,0.0227 10e-5,0.0227 5e-4,0.0681 10e-5,0.0227 3e-4,0.0454 l 0.037,5.42219 3.2216,-0.0218 q 0.1362,0.0218 0.2724,0.0208 0.1361,-9.2e-4 0.2722,-0.002 0.2722,-0.002 0.499,-0.0261 0.2492,-0.0471 0.4523,-0.20725 0.045,-0.0457 0.09,-0.0687 0.045,-0.0457 0.067,-0.0912 0.1128,-0.0915 0.1575,-0.18257 0.068,-0.0912 0.1346,-0.22779 l 0.4697,-1.00144 0.036,5.33144 -0.2077,-0.52042 q -0.023,-0.0679 -0.069,-0.15835 -0.023,-0.0906 -0.047,-0.18119 -0.023,-0.0452 -0.046,-0.0678 -3e-4,-0.0454 -0.023,-0.0906 -0.1159,-0.36223 -0.2769,-0.67877 -0.1384,-0.33938 -0.3889,-0.47382 -0.1367,-0.0898 -0.2731,-0.13428 -0.1365,-0.0445 -0.2728,-0.0662 -0.1362,-0.0218 -0.295,-0.0207 -0.1362,9.2e-4 -0.3177,0.002 -0.023,1.5e-4 -0.068,4.6e-4 -0.023,1.5e-4 -0.045,3.1e-4 l -3.3351,-1.5e-4 0.038,5.581 q 8e-4,0.11343 0,0.24955 0.024,0.13597 0.047,0.24925 0.047,0.24925 0.1165,0.45298 0.092,0.18088 0.2286,0.24802 0.1821,0.0895 0.3184,0.11129 0.1589,0.0216 0.3177,0.0205 0.068,-4.6e-4 0.1135,-7.7e-4 0.068,-4.6e-4 0.136,-0.0236 0.045,-3.1e-4 0.1134,-7.7e-4 0.068,-4.6e-4 0.1361,-9.2e-4 l 3.7205,-0.0478 q 0.068,0.0222 0.1363,0.0218 0.068,-4.6e-4 0.1361,-9.2e-4 0.045,0.0224 0.1136,0.0219 0.068,-4.6e-4 0.1361,-9.2e-4 0.1135,-7.6e-4 0.2267,-0.0242 0.1133,-0.0235 0.2265,-0.0696 0.1808,-0.092 0.2924,-0.36499 0.1343,-0.27316 0.2455,-0.61423 0.022,-0.0682 0.044,-0.13643 0.022,-0.0909 0.044,-0.15911 0.044,-0.13643 0.089,-0.27286 0.067,-0.13658 0.1118,-0.25033 l 0.29,-0.72797 -0.089,3.67606 -12.0241,0.0813 0.5207,-0.16234 q 0.1814,-0.0239 0.4078,-0.0935 0.2491,-0.0697 0.4982,-0.1395 0.2262,-0.0923 0.4526,-0.16188 0.2263,-0.0923 0.4072,-0.18425 0.1131,-0.0461 0.2034,-0.11482 0.09,-0.0687 0.1353,-0.11435 0.1126,-0.13689 0.1569,-0.296 0.044,-0.18181 0.066,-0.36346 -5e-4,-0.0681 -10e-4,-0.13612 -4e-4,-0.0681 -9e-4,-0.13612 -7e-4,-0.11344 0,-0.20418 -6e-4,-0.0907 0,-0.1815 l -0.083,-12.29634 q -6e-4,-0.0908 0,-0.20419 -9e-4,-0.13612 0,-0.22687 0,-0.22687 -0.048,-0.40806 -0.024,-0.20403 -0.1841,-0.38445 -0.046,-0.0451 -0.1369,-0.11251 -0.091,-0.0675 -0.205,-0.11206 -0.1821,-0.0895 -0.4094,-0.15605 -0.2275,-0.0892 -0.455,-0.17843 -0.25,-0.0664 -0.5,-0.13275 -0.2273,-0.0665 -0.4091,-0.11067 l -0.5231,-0.17797 0,0 z"
           inkscape:connector-curvature="0" />
        <path
           id="path4306"
           style="font-style:normal;font-variant:normal;font-weight:normal;font-stretch:normal;font-size:22.68750191px;font-family:Augustus;-inkscape-font-specification:Augustus;fill:#373c3d;fill-opacity:1;stroke-width:1.00000012;stroke-miterlimit:4;stroke-dasharray:none"
           d="m 1088.2797,360.32364 q 0.011,0.27297 5e-4,0.52231 0.012,0.2503 0,0.49964 -0.1184,2.78805 -1.4599,4.43418 -1.3416,1.64614 -2.8988,2.48834 -1.0696,0.5904 -2.0578,0.86636 -0.9655,0.27691 -1.5124,0.32181 -0.3192,0.0319 -0.7282,0.0372 -0.3873,0.029 -0.8179,0.0107 -0.2267,-0.01 -0.4524,-0.0419 -0.2267,-0.01 -0.4534,-0.0192 -0.3163,-0.0361 -0.6327,-0.0723 -0.3173,-0.0135 -0.6111,-0.0487 -0.4967,-0.0665 -0.9491,-0.10842 -0.4297,-0.0409 -0.7244,-0.0535 l -4.8054,-0.20403 0.5064,-0.16017 q 0.1606,-0.0386 0.3675,-0.0979 0.2069,-0.0593 0.4138,-0.11868 0.3911,-0.11964 0.7378,-0.26388 0.3704,-0.16593 0.5141,-0.3415 0.047,-0.0434 0.072,-0.0878 0.025,-0.0444 0.048,-0.0661 0.1456,-0.2209 0.1996,-0.42298 0.078,-0.22378 0.089,-0.49579 l 0.5255,-12.37622 q 0.013,-0.29467 -0.022,-0.54594 -0.012,-0.2503 -0.1838,-0.48467 -0.1509,-0.18807 -0.5078,-0.33947 -0.3333,-0.17311 -0.7138,-0.3028 -0.2229,-0.1003 -0.4476,-0.15526 -0.2011,-0.0767 -0.3796,-0.15236 l -0.49,-0.22518 4.1254,0.17517 q 0.2937,0.0352 0.7027,0.0298 0.409,-0.005 0.9086,-0.007 0.4987,0.0212 1.0437,0.0216 0.5676,0.001 1.1796,0.0274 0.408,0.0173 0.8151,0.0573 0.408,0.0173 0.815,0.0573 0.2937,0.0352 0.5648,0.0694 0.271,0.0342 0.5411,0.0911 0.5855,0.11569 1.3002,0.39583 0.7158,0.25746 1.4682,0.72086 1.416,0.87761 2.5972,2.47191 1.2049,1.57259 1.3098,3.91596 l 10e-4,-0.0227 z m -12.7008,-5.71668 -0.5178,12.19489 q -0.015,0.36267 0.063,0.66119 0.079,0.27585 0.3661,0.4697 0.022,0.0236 0.043,0.0473 0.045,0.002 0.1134,0.005 0.2917,0.0805 0.9462,0.17643 0.6771,0.0969 1.4705,0.13056 0.1813,0.008 0.34,0.0144 0.1813,0.008 0.3409,-0.008 0.7264,0.008 1.4112,-0.0763 0.7075,-0.0835 1.2158,-0.289 0.393,-0.16498 0.8777,-0.34877 0.5083,-0.2055 1.0431,-0.5007 1.0243,-0.59233 1.9386,-1.80245 0.9143,-1.21011 1.1041,-3.54097 0,-0.0453 0,-0.068 0,-0.0453 0,-0.0907 10e-4,-0.0227 0,-0.068 0,-0.0453 0,-0.068 0.1058,-2.49338 -1.3706,-4.62249 -1.4538,-2.12816 -4.0808,-2.83011 -0.2691,-0.0796 -0.9699,-0.15472 -0.7007,-0.0752 -1.495,-0.0862 -0.023,-9.7e-4 -0.045,-0.002 -0.023,-9.6e-4 -0.045,-0.002 -0.7934,-0.0337 -1.4989,0.004 -0.682,0.0165 -0.9371,0.14187 -0.1852,0.083 -0.2618,0.28409 -0.054,0.20208 -0.065,0.45141 l 0,-0.0227 z"
           inkscape:connector-curvature="0" />
        <path
           id="path4308"
           style="font-style:normal;font-variant:normal;font-weight:normal;font-stretch:normal;font-size:22.68750191px;font-family:Augustus;-inkscape-font-specification:Augustus;fill:#373c3d;fill-opacity:1;stroke-width:1.00000012;stroke-miterlimit:4;stroke-dasharray:none"
           d="m 1095.1611,355.73918 -0.9636,12.32708 q -0.03,0.38452 -0.03,0.68033 0.024,0.27495 0.229,0.56406 0.1215,0.19155 0.4502,0.35379 0.353,0.14138 0.7305,0.26191 0.066,0.0279 0.1095,0.0541 0.066,0.0279 0.134,0.0332 0.1774,0.0594 0.3304,0.13961 0.1548,0.0576 0.287,0.11346 l 0.4835,0.21985 -7.6677,-0.59939 0.5326,-0.11767 q 0.1827,-0.008 0.4142,-0.0586 0.2541,-0.0484 0.5082,-0.0968 0.2333,-0.0728 0.4648,-0.12296 0.2332,-0.0728 0.4212,-0.14913 0.1167,-0.0364 0.2124,-0.0972 0.096,-0.0608 0.1446,-0.10248 0.077,-0.10779 0.129,-0.19472 0.077,-0.10779 0.1082,-0.21912 0.031,-0.11132 0.04,-0.22441 0.031,-0.11133 0.038,-0.2018 0.01,-0.0679 0.01,-0.1131 0.01,-0.0679 0.01,-0.11309 -0.017,-0.0696 -0.014,-0.11486 0.01,-0.0679 0.01,-0.11309 l 0.953,-12.19137 q 0,-0.0226 0.01,-0.0679 0.01,-0.0678 0.033,-0.13394 0,-0.0452 0.01,-0.11309 0.01,-0.0679 0.011,-0.13571 0.01,-0.0905 -0.01,-0.1601 0.01,-0.0905 -0.01,-0.18272 -0.012,-0.13748 -0.048,-0.25411 -0.035,-0.13924 -0.1163,-0.25941 -0.042,-0.0488 -0.1268,-0.1237 -0.085,-0.0749 -0.1948,-0.129 -0.1738,-0.10462 -0.3947,-0.19016 -0.2191,-0.10815 -0.4382,-0.21631 -0.2435,-0.0873 -0.487,-0.17461 -0.2209,-0.0855 -0.3983,-0.14492 l -0.5061,-0.22161 7.6677,0.59939 -0.5136,0.16466 q -0.1427,0.0799 -0.3272,0.11096 -0.1845,0.0311 -0.3916,0.0604 -0.047,0.0191 -0.094,0.0382 -0.045,-0.004 -0.092,0.0156 -0.3916,0.0604 -0.7641,0.16784 -0.3481,0.0866 -0.4962,0.23429 -0.026,0.0435 -0.075,0.0852 -0.024,0.0208 -0.051,0.0643 -0.1552,0.23819 -0.199,0.50785 -0.042,0.24703 -0.067,0.56369 l 0,-0.0226 z"
           inkscape:connector-curvature="0" />
        <path
           id="path4310"
           style="font-style:normal;font-variant:normal;font-weight:normal;font-stretch:normal;font-size:22.68750191px;font-family:Augustus;-inkscape-font-specification:Augustus;fill:#373c3d;fill-opacity:1;stroke-width:1.00000012;stroke-miterlimit:4;stroke-dasharray:none"
           d="m 1099.788,353.863 11.3051,1.17903 -0.4085,3.69833 -0.2218,-0.93556 q -0.036,-0.095 -0.069,-0.21249 -0.011,-0.11518 -0.047,-0.21015 -0.08,-0.32768 -0.1917,-0.56745 -0.087,-0.25998 -0.3389,-0.46874 -0.1687,-0.13166 -0.3873,-0.22289 -0.2186,-0.0912 -0.4419,-0.13732 -0.1354,-0.0141 -0.2708,-0.0282 -0.1105,-0.0343 -0.2459,-0.0485 l -2.7731,-0.31202 q -0.047,0.0179 -0.093,0.0131 -0.045,-0.005 -0.1129,-0.0118 -0.2707,-0.0282 -0.5439,-0.0339 -0.2505,-0.003 -0.4001,0.11795 -0.1,0.0808 -0.1457,0.30414 -0.044,0.20073 -0.07,0.44895 0,0 0,0.0226 0,0 0,0.0226 0,0.0226 -0.01,0.0677 0,0.0226 0,0.0451 l -0.5625,5.39307 3.2043,0.33417 q 0.133,0.0367 0.2684,0.0508 0.1354,0.0141 0.2708,0.0282 0.2708,0.0282 0.4988,0.0292 0.2529,-0.0192 0.4724,-0.15602 0.05,-0.0404 0.097,-0.0583 0.05,-0.0404 0.077,-0.0832 0.1222,-0.0785 0.1768,-0.16405 0.077,-0.0832 0.1589,-0.21153 l 0.5774,-0.94345 -0.553,5.30281 -0.149,-0.54018 q -0.015,-0.0701 -0.051,-0.16502 -0.013,-0.0926 -0.026,-0.18523 -0.018,-0.0475 -0.038,-0.0724 0,-0.0451 -0.013,-0.0926 -0.075,-0.37281 -0.2002,-0.7052 -0.1001,-0.35259 -0.3342,-0.51387 -0.126,-0.10438 -0.2567,-0.16363 -0.1307,-0.0593 -0.2637,-0.0959 -0.133,-0.0367 -0.291,-0.0532 -0.1354,-0.0141 -0.3159,-0.0329 -0.023,-0.002 -0.068,-0.007 -0.023,-0.002 -0.045,-0.005 l -3.3147,-0.36851 -0.579,5.55102 q -0.012,0.11283 -0.026,0.24822 0.01,0.13774 0.019,0.25292 0.019,0.25292 0.066,0.46307 0.072,0.18993 0.1998,0.27175 0.1711,0.10909 0.3042,0.14577 0.1556,0.039 0.3135,0.0555 0.068,0.007 0.1128,0.0118 0.068,0.007 0.1378,-0.008 0.045,0.005 0.1128,0.0118 0.068,0.007 0.1354,0.0141 l 3.703,0.36339 q 0.065,0.0296 0.1331,0.0367 0.068,0.007 0.1354,0.0141 0.043,0.0273 0.1104,0.0343 0.068,0.007 0.1354,0.0141 0.1128,0.0118 0.228,9.6e-4 0.1152,-0.0108 0.2327,-0.0442 0.19,-0.0714 0.331,-0.33045 0.1637,-0.25666 0.3118,-0.58337 0.03,-0.0653 0.059,-0.13068 0.032,-0.0879 0.062,-0.15325 0.059,-0.13068 0.1185,-0.26137 0.082,-0.12833 0.1388,-0.23645 l 0.3686,-0.69149 -0.4941,3.64378 -11.9595,-1.24727 0.5355,-0.10383 q 0.1829,-0.004 0.4156,-0.0479 0.2553,-0.0418 0.5105,-0.0836 0.2351,-0.0667 0.4678,-0.11089 0.2351,-0.0667 0.425,-0.13816 0.1175,-0.0334 0.2149,-0.0916 0.097,-0.0583 0.1471,-0.0987 0.127,-0.12362 0.1886,-0.27687 0.064,-0.17582 0.1053,-0.35398 0.01,-0.0677 0.014,-0.13539 0.01,-0.0677 0.014,-0.1354 0.012,-0.11282 0.021,-0.20308 0.01,-0.0903 0.019,-0.18052 l 1.2755,-12.2303 q 0.01,-0.0903 0.021,-0.20308 0.014,-0.13539 0.024,-0.22565 0.024,-0.22565 0,-0.41088 0,-0.20544 -0.1405,-0.40244 -0.04,-0.0498 -0.1236,-0.12694 -0.083,-0.0771 -0.1913,-0.13401 -0.1711,-0.10908 -0.3897,-0.20031 -0.2163,-0.1138 -0.4325,-0.22759 -0.2412,-0.0936 -0.4823,-0.18717 -0.2186,-0.0912 -0.3944,-0.15518 l -0.5002,-0.23465 0,0 z"
           inkscape:connector-curvature="0" />
        <path
           id="path4312"
           style="font-style:normal;font-variant:normal;font-weight:normal;font-stretch:normal;font-size:22.68750191px;font-family:Augustus;-inkscape-font-specification:Augustus;fill:#373c3d;fill-opacity:1;stroke-width:1.00000012;stroke-miterlimit:4;stroke-dasharray:none"
           d="m 1128.1306,374.36278 q -1.4686,-2.20697 -1.8878,-2.79491 -0.3936,-0.60714 -0.5823,-0.88663 -0.1153,-0.15422 -0.2689,-0.35985 -0.1536,-0.20563 -0.5152,-0.71646 -0.4,-0.56223 -0.8,-1.12446 -0.4001,-0.56224 -0.8193,-1.15017 -0.073,-0.12527 -0.1728,-0.23134 -0.096,-0.12852 -0.1696,-0.25379 -1.8689,-2.60878 -3.5588,-4.87071 -1.6866,-2.28439 -2.4196,-3.23868 l -1.4041,9.6999 q -0.013,0.0898 -0.033,0.22454 -0.016,0.11226 -0.036,0.24698 -0.042,0.13148 -0.068,0.3111 -0.023,0.15718 -0.049,0.3368 -0.019,0.13473 -0.039,0.26945 -0.019,0.13472 -0.039,0.26944 -0.029,0.3625 -0.037,0.72826 0.015,0.36901 0.095,0.60979 0.08,0.24079 0.3714,0.44347 0.314,0.20593 0.6538,0.39265 0.1057,0.0612 0.189,0.11907 0.087,0.0355 0.1732,0.0709 l 0.5994,0.29309 -5.8603,-0.84833 0.4077,-0.12437 q 0.1155,-0.006 0.2118,-0.0381 0.1188,-0.0287 0.2375,-0.0573 0.4045,-0.10192 0.7673,-0.2328 0.3853,-0.12762 0.5557,-0.3551 0.1415,-0.18583 0.2355,-0.67656 0.1197,-0.50993 0.2266,-1.09047 0.039,-0.26944 0.078,-0.53888 0.039,-0.26944 0.072,-0.49398 l 1.8365,-12.68621 1.3023,0.18852 q 0.2015,0.3501 0.4733,0.84793 0.275,0.47537 0.7518,1.14041 0.8033,1.10202 1.757,2.43211 0.9761,1.33335 1.9681,2.71485 2.0193,2.83687 3.773,5.29143 1.7762,2.45781 2.1859,2.95268 l 1.3847,-9.56517 q 0.023,-0.15718 0.049,-0.33681 0.029,-0.20208 0.058,-0.40416 0.029,-0.20208 0.055,-0.38171 0.029,-0.20208 0.055,-0.38171 0.065,-0.44907 0.095,-0.81157 0.033,-0.38496 -0.034,-0.55514 -0.08,-0.24078 -0.3938,-0.44671 -0.2916,-0.20268 -0.6313,-0.38941 -0.042,-0.029 -0.064,-0.0322 -0.019,-0.0257 -0.042,-0.029 -0.1058,-0.0611 -0.2115,-0.12231 -0.1058,-0.0612 -0.2116,-0.12232 l -0.3524,-0.25734 5.8603,0.84833 -0.6677,0.17844 q -0.074,0.0351 -0.1444,0.0479 -0.048,0.0159 -0.1188,0.0286 -0.382,0.10517 -0.6967,0.22009 -0.2889,0.0957 -0.546,0.28775 -0.1285,0.096 -0.2576,0.51288 -0.1034,0.39766 -0.1941,0.86594 -0.062,0.26619 -0.1005,0.53563 -0.036,0.24699 -0.065,0.44907 -0.033,0.22453 -0.052,0.35925 -0.016,0.11227 -0.016,0.11227 l -1.843,12.73112 -1.0777,-0.15602 0,0 z"
           inkscape:connector-curvature="0" />
        <path
           id="path4314"
           style="font-style:normal;font-variant:normal;font-weight:normal;font-stretch:normal;font-size:22.68750191px;font-family:Augustus;-inkscape-font-specification:Augustus;fill:#373c3d;fill-opacity:1;stroke-width:1.00000012;stroke-miterlimit:4;stroke-dasharray:none"
           d="m 1135.6479,358.18243 0.8685,0.53436 10.5206,1.99736 1.2394,-0.20345 -0.9925,4.98435 -0.1323,-1.24904 q -0.018,-0.0265 -0.036,-0.053 0.01,-0.0446 0.013,-0.0669 -0.019,-0.1422 -0.038,-0.2844 0,-0.13797 -0.016,-0.28017 -0.071,-0.47541 -0.1778,-0.88818 -0.1021,-0.43506 -0.393,-0.60575 -0.103,-0.0657 -0.2102,-0.10919 -0.1072,-0.0435 -0.2187,-0.0646 -0.1072,-0.0434 -0.2186,-0.0646 -0.1115,-0.0212 -0.2452,-0.0466 -0.045,-0.008 -0.089,-0.0169 -0.022,-0.004 -0.067,-0.0127 l -2.938,-0.58088 -2.4798,13.06157 q -0.072,0.37892 -0.1046,0.67291 -0.01,0.27594 0.1659,0.58573 0.1,0.2037 0.4088,0.40091 0.3355,0.17916 0.6975,0.34025 0.063,0.035 0.103,0.0657 0.063,0.035 0.1295,0.0477 0.1698,0.0784 0.3132,0.17492 0.1475,0.0742 0.2728,0.14417 l 0.4565,0.27141 -7.5561,-1.43454 0.5423,-0.0587 q 0.1825,0.0116 0.4181,-0.013 0.2579,-0.0203 0.5158,-0.0406 0.2398,-0.0468 0.4754,-0.0714 0.2398,-0.0468 0.435,-0.10214 0.12,-0.0234 0.2218,-0.0734 0.1019,-0.0499 0.1549,-0.0861 0.088,-0.0987 0.1495,-0.17944 0.088,-0.0988 0.1315,-0.20597 0.043,-0.10722 0.065,-0.21866 0.043,-0.10722 0.06,-0.19637 0.013,-0.0669 0.021,-0.11145 0.013,-0.0669 0.021,-0.11145 -0.01,-0.0711 0,-0.11568 0.013,-0.0669 0.021,-0.11144 l 2.4671,-12.9947 -3.4548,-0.65591 q -0.1157,0.001 -0.2272,-0.02 -0.089,-0.0169 -0.1825,-0.0116 -0.049,0.0138 -0.1199,0.0234 -0.049,0.0138 -0.098,0.0277 -0.3014,0.12753 -0.542,0.5437 -0.2407,0.41616 -0.4495,0.90766 -0.035,0.0626 -0.074,0.14756 -0.013,0.0669 -0.048,0.12951 -0.043,0.10721 -0.1092,0.2102 -0.043,0.10721 -0.087,0.21443 l -0.3891,0.71128 0.8068,-4.85794 0,0 z"
           inkscape:connector-curvature="0" />
        <path
           id="path4316"
           style="font-style:normal;font-variant:normal;font-weight:normal;font-stretch:normal;font-size:22.68750191px;font-family:Augustus;-inkscape-font-specification:Augustus;fill:#373c3d;fill-opacity:1;stroke-width:1.00000012;stroke-miterlimit:4;stroke-dasharray:none"
           d="m 1154.1906,364.5634 -2.7109,12.06385 q -0.085,0.3763 -0.1271,0.66904 -0.015,0.27557 0.1463,0.59094 0.093,0.20693 0.3952,0.41435 0.3293,0.19027 0.6857,0.36337 0.061,0.0371 0.1007,0.0691 0.061,0.0371 0.1278,0.052 0.1672,0.0841 0.3072,0.18529 0.145,0.0791 0.2679,0.15321 l 0.4472,0.28651 -7.504,-1.68623 0.544,-0.0405 q 0.182,0.0177 0.4183,0.001 0.2584,-0.0117 0.5168,-0.0234 0.2413,-0.0388 0.4775,-0.0555 0.2413,-0.0388 0.4383,-0.0876 0.1206,-0.0194 0.2241,-0.0659 0.1034,-0.0465 0.1577,-0.0808 0.091,-0.0958 0.1554,-0.17435 0.091,-0.0958 0.1383,-0.20146 0.047,-0.1057 0.072,-0.21638 0.047,-0.1057 0.067,-0.19425 0.015,-0.0664 0.025,-0.11067 0.015,-0.0664 0.025,-0.11068 -0.01,-0.0714 0,-0.11565 0.015,-0.0664 0.025,-0.11068 l 2.6811,-11.93104 q 0,-0.0221 0.015,-0.0664 0.015,-0.0664 0.052,-0.12783 0.01,-0.0443 0.025,-0.11068 0.015,-0.0664 0.03,-0.13281 0.02,-0.0885 0.013,-0.15993 0.02,-0.0885 0.018,-0.18206 0.01,-0.13778 -0.012,-0.25841 -0.014,-0.14276 -0.078,-0.27333 -0.034,-0.0542 -0.1079,-0.14053 -0.074,-0.0863 -0.1743,-0.15544 -0.1572,-0.12834 -0.3637,-0.24448 -0.2014,-0.13829 -0.4029,-0.27657 -0.2286,-0.12112 -0.4571,-0.24225 -0.2065,-0.11614 -0.3736,-0.20021 l -0.4693,-0.29149 7.5039,1.68624 -0.5317,0.0898 q -0.1527,0.0587 -0.3398,0.0632 -0.187,0.004 -0.3962,0.004 -0.049,0.0122 -0.099,0.0244 -0.044,-0.01 -0.093,0.002 -0.3962,0.004 -0.7802,0.0572 -0.3569,0.0361 -0.5245,0.16117 -0.032,0.0393 -0.086,0.0736 -0.027,0.0172 -0.059,0.0565 -0.1875,0.21365 -0.2694,0.4743 -0.077,0.23852 -0.1465,0.54841 l 0,-0.0221 z"
           inkscape:connector-curvature="0" />
        <path
           id="path4318"
           style="font-style:normal;font-variant:normal;font-weight:normal;font-stretch:normal;font-size:22.68750191px;font-family:Augustus;-inkscape-font-specification:Augustus;fill:#373c3d;fill-opacity:1;stroke-width:1.00000012;stroke-miterlimit:4;stroke-dasharray:none"
           d="m 1169.0055,366.03816 q -0.01,0.187 -0.01,0.35217 0.01,0.14333 0.013,0.28666 -0.021,0.15901 -0.015,0.30234 0.01,0.14333 10e-4,0.33033 0.041,1.02516 0.1619,2.85097 0.1273,1.80398 0.2831,3.75746 0.013,0.1215 0.026,0.24299 0.013,0.1215 0.026,0.243 0.1759,2.38347 0.3569,4.41477 0.209,2.01564 0.3013,2.60745 0.016,0.19317 0.045,0.34266 0.029,0.1495 0.051,0.32083 0.013,0.1215 0.041,0.27099 0.035,0.12766 0.063,0.27716 0.048,0.24916 0.3258,0.51628 0.3,0.27328 0.6499,0.53705 0.081,0.0465 0.1562,0.11481 0.075,0.0683 0.1562,0.11481 0.059,0.0403 0.091,0.0963 0.059,0.0403 0.1186,0.0806 l 0.4093,0.3041 -6.463,-1.82424 0.6293,-0.0581 q 0.1372,0.0151 0.3085,-0.007 0.1713,-0.0224 0.3645,-0.0386 0.3365,-0.0229 0.6198,-0.10794 0.3052,-0.0789 0.4323,-0.27874 0,0 0,0 0.01,-0.0218 0.034,-0.0375 0.01,-0.0218 0.01,-0.0218 0.01,-0.0218 0.012,-0.0437 0.031,-0.10917 0.036,-0.29618 0.01,-0.187 -0.017,-0.35833 0,-0.0935 -6e-4,-0.16516 0,-0.0717 -0.01,-0.14334 0,-0.0935 -0.022,-0.17132 0,-0.0935 -5e-4,-0.16517 l -0.3043,-4.51779 -5.3931,-1.52224 -2.6809,3.65162 q -0.04,0.0593 -0.074,0.0969 -0.01,0.0218 -0.019,0.0655 -0.068,0.075 -0.1428,0.17186 -0.053,0.10301 -0.1053,0.20602 -0.1333,0.22169 -0.2386,0.42771 -0.1053,0.20601 -0.1361,0.31519 -0.01,0.0218 -0.012,0.0437 0,0 -0.01,0.0218 0.032,0.22116 0.2351,0.41996 0.2312,0.18313 0.5061,0.37858 0.044,0.0123 0.081,0.0465 0.044,0.0123 0.059,0.0403 0.097,0.0745 0.1937,0.14897 0.103,0.0526 0.178,0.12097 l 0.5279,0.38474 -5.9608,-1.68249 0.5297,-0.0391 q 0.1651,-5.2e-4 0.3583,-0.0167 0.215,-0.01 0.4082,-0.0262 0.4081,-0.0262 0.7849,-0.10847 0.3769,-0.0822 0.5415,-0.24792 0.096,-0.0907 0.1708,-0.18753 0.074,-0.0969 0.1428,-0.17186 0.062,-0.0532 0.1025,-0.11252 0.04,-0.0593 0.087,-0.14051 0.068,-0.075 0.1148,-0.15619 0.068,-0.075 0.1428,-0.17186 0.4564,-0.53124 0.9033,-1.11232 0.4749,-0.59675 0.956,-1.21533 0.2514,-0.30621 0.5029,-0.61242 0.2576,-0.32804 0.5152,-0.65609 1.9304,-2.49616 3.5377,-4.68277 1.6135,-2.20844 2.0229,-2.82368 0.1271,-0.19985 0.2201,-0.3622 0.1148,-0.15619 0.2077,-0.31854 0.018,-0.0655 0.053,-0.10301 0.04,-0.0593 0.059,-0.12484 0.074,-0.0968 0.1333,-0.22169 0.081,-0.11868 0.1395,-0.24352 l 1.469,0.39108 0,0 z m -1.2961,8.85156 -0.5906,-6.34307 -3.8418,5.09199 4.4324,1.25108 0,0 z"
           inkscape:connector-curvature="0" />
      </g>
      <g
         id="text4281"
         style="font-style:normal;font-weight:normal;font-size:40px;line-height:125%;font-family:sans-serif;letter-spacing:0px;word-spacing:0px;fill:#373c3d;fill-opacity:1;stroke:none;stroke-width:1.00000012;stroke-linecap:butt;stroke-linejoin:miter;stroke-miterlimit:4;stroke-dasharray:none;stroke-opacity:1"
         transform="matrix(0.99968406,0.02513512,-0.02513512,0.99968406,18.93118,-19.297082)">
        <path
           id="path4289"
           style="font-style:normal;font-variant:normal;font-weight:normal;font-stretch:normal;font-size:25.00000191px;font-family:Augustus;-inkscape-font-specification:Augustus;fill:#373c3d;fill-opacity:1;stroke-width:1.00000012;stroke-miterlimit:4;stroke-dasharray:none"
           d="m 645.08205,341.74314 1.10645,0.19567 11.58999,-2.21631 1.18765,-0.71071 1.0027,5.50972 -0.64175,-1.22629 q -0.0293,-0.0199 -0.0585,-0.0397 -0.009,-0.0491 -0.0141,-0.0737 -0.0773,-0.13794 -0.15456,-0.27588 -0.0527,-0.14263 -0.13002,-0.28057 -0.26579,-0.45824 -0.54206,-0.83811 -0.28096,-0.40442 -0.64821,-0.46146 -0.13217,-0.0256 -0.25964,-0.0267 -0.12747,-0.001 -0.25024,0.0224 -0.12747,-0.001 -0.25025,0.0224 -0.12277,0.0235 -0.2701,0.0516 -0.0491,0.009 -0.0982,0.0188 -0.0246,0.005 -0.0737,0.0141 l -3.24597,0.59526 2.75161,14.38927 q 0.0798,0.41744 0.16542,0.73196 0.10545,0.28527 0.40735,0.53298 0.1849,0.16826 0.5814,0.24516 0.41636,0.0476 0.85257,0.066 0.0784,0.0105 0.13217,0.0256 0.0784,0.0105 0.15203,-0.004 0.20583,0.0115 0.3918,0.0523 0.18128,0.0162 0.338,0.0372 l 0.57778,0.0931 -8.32418,1.5918 0.5319,-0.27988 q 0.19175,-0.0621 0.42321,-0.18274 0.25602,-0.12532 0.51204,-0.25064 0.22677,-0.14517 0.45823,-0.26579 0.22677,-0.14518 0.40443,-0.28096 0.11338,-0.0726 0.19752,-0.16504 0.0841,-0.0924 0.12385,-0.15095 0.0502,-0.13686 0.0805,-0.24447 0.0502,-0.13686 0.0513,-0.26433 10e-4,-0.12748 -0.0224,-0.25025 10e-4,-0.12747 -0.0177,-0.22569 -0.0141,-0.0737 -0.0235,-0.12278 -0.0141,-0.0737 -0.0235,-0.12277 -0.0386,-0.069 -0.048,-0.11808 -0.0141,-0.0737 -0.0235,-0.12278 l -2.73752,-14.31561 -3.80603,0.72782 q -0.11808,0.048 -0.24086,0.0715 -0.0982,0.0188 -0.19174,0.0621 -0.0444,0.0339 -0.11339,0.0726 -0.0444,0.034 -0.0888,0.0679 -0.25709,0.25278 -0.33507,0.77675 -0.078,0.52397 -0.0928,1.11222 -0.0105,0.0784 -0.0162,0.18128 0.0141,0.0737 0.004,0.15202 -10e-4,0.12747 -0.0267,0.25964 -10e-4,0.12747 -0.002,0.25494 l -0.11045,0.88653 -1.14172,-5.30498 0,0 z"
           inkscape:connector-curvature="0" />
        <path
           id="path4291"
           style="font-style:normal;font-variant:normal;font-weight:normal;font-stretch:normal;font-size:25.00000191px;font-family:Augustus;-inkscape-font-specification:Augustus;fill:#373c3d;fill-opacity:1;stroke-width:1.00000012;stroke-miterlimit:4;stroke-dasharray:none"
           d="m 666.67487,340.7857 2.10755,13.46101 q 0.0657,0.41989 0.14071,0.73711 0.0958,0.28866 0.3892,0.54637 0.17913,0.17439 0.57282,0.26458 0.41452,0.0616 0.84987,0.0947 0.078,0.0131 0.13123,0.0301 0.078,0.0131 0.15206,10e-4 0.20533,0.0185 0.38982,0.0655 0.18063,0.0223 0.33656,0.0485 l 0.57432,0.11251 -8.373,1.31094 0.54101,-0.26184 q 0.19373,-0.0556 0.42912,-0.1684 0.26008,-0.11664 0.52017,-0.23327 0.23153,-0.13747 0.46692,-0.25024 0.23152,-0.13746 0.41364,-0.2672 0.11577,-0.0687 0.20296,-0.1583 0.0872,-0.0896 0.12886,-0.14669 0.0548,-0.1351 0.0887,-0.24163 0.0548,-0.1351 0.0601,-0.26246 0.005,-0.12736 -0.014,-0.25086 0.005,-0.12736 -0.0101,-0.22616 -0.0116,-0.0741 -0.0193,-0.12349 -0.0116,-0.0741 -0.0193,-0.1235 -0.0363,-0.0702 -0.044,-0.11963 -0.0116,-0.0741 -0.0193,-0.12349 l -2.08434,-13.31282 q -0.004,-0.0247 -0.0116,-0.0741 -0.0116,-0.0741 0.002,-0.15206 -0.008,-0.0494 -0.0193,-0.1235 -0.0116,-0.0741 -0.0232,-0.14819 -0.0155,-0.0988 -0.0518,-0.16903 -0.0155,-0.0988 -0.0556,-0.19372 -0.0479,-0.14433 -0.11664,-0.26009 -0.0726,-0.14046 -0.19073,-0.24849 -0.0571,-0.0417 -0.16753,-0.10029 -0.1104,-0.0586 -0.24163,-0.0887 -0.21306,-0.0679 -0.47165,-0.10328 -0.26246,-0.0601 -0.52492,-0.12025 -0.28329,-0.0316 -0.56658,-0.0631 -0.25859,-0.0354 -0.46392,-0.0539 l -0.59902,-0.10865 8.373,-1.31094 -0.50857,0.30737 q -0.13273,0.122 -0.32259,0.20233 -0.18986,0.0803 -0.40442,0.16454 -0.0455,0.0324 -0.0911,0.0649 -0.0494,0.008 -0.0949,0.0402 -0.40441,0.16454 -0.7764,0.37461 -0.35115,0.1815 -0.47227,0.3776 -0.017,0.0533 -0.0586,0.11039 -0.0208,0.0286 -0.0378,0.0818 -0.10566,0.29489 -0.0839,0.59514 0.0178,0.27556 0.072,0.62135 l -0.004,-0.0247 z"
           inkscape:connector-curvature="0" />
        <path
           id="path4293"
           style="font-style:normal;font-variant:normal;font-weight:normal;font-stretch:normal;font-size:25.00000191px;font-family:Augustus;-inkscape-font-specification:Augustus;fill:#373c3d;fill-opacity:1;stroke-width:1.00000012;stroke-miterlimit:4;stroke-dasharray:none"
           d="m 677.4063,338.93284 q 0.61617,1.01289 1.60249,2.41211 0.98355,1.37436 2.0555,2.86464 0.1188,0.16283 0.21275,0.32842 0.11602,0.13798 0.23205,0.27596 1.54159,2.09189 2.87044,3.85535 1.35091,1.73584 1.72106,2.12217 0.65084,-1.38073 1.79511,-4.20009 1.14151,-2.84419 2.39881,-6.00318 0.0607,-0.13255 0.12134,-0.2651 0.0579,-0.1574 0.11856,-0.28994 0.17646,-0.44734 0.35292,-0.89468 0.20131,-0.45011 0.37777,-0.89745 0.15716,-0.39487 0.27018,-0.73451 0.13787,-0.34241 0.25088,-0.68204 0.0165,-0.0773 0.0331,-0.15462 0.0414,-0.0801 0.0579,-0.1574 0.11579,-0.31479 0.20396,-0.65165 0.11025,-0.36448 0.24256,-0.75658 l 1.36374,-0.17739 q 0.0748,0.44445 0.14122,0.81436 0.0665,0.36991 0.12735,0.69013 0.0111,0.0994 0.0222,0.19877 0.0332,0.0718 0.0415,0.1463 0.072,0.4196 0.14676,0.86405 0.0996,0.44167 0.20755,0.95789 0.17716,0.91096 0.39303,1.94339 0.2131,1.00758 0.42897,2.04 0.57574,2.90406 1.07393,5.33882 0.49819,2.43476 0.52858,2.48167 0.008,0.0745 0.0167,0.14908 0.0304,0.0469 0.0387,0.12145 0.0913,0.36714 0.20466,0.70666 0.13544,0.3119 0.25978,0.52442 0.14919,0.20974 0.54407,0.3669 0.3921,0.13232 0.83111,0.23424 0.20709,0.0523 0.38933,0.10747 0.20431,0.0275 0.38655,0.0826 l 0.54395,0.14052 -7.727,0.86257 0.78385,-0.41452 q 0.0994,-0.0111 0.17114,-0.0443 0.0938,-0.0608 0.19045,-0.0967 0.0248,-0.003 0.0248,-0.003 0.0221,-0.0276 0.0469,-0.0304 0.38367,-0.16861 0.71486,-0.35651 0.35605,-0.19068 0.45531,-0.42816 0.16271,-0.34518 0.1819,-0.62403 0.044,-0.28162 0.0163,-0.53008 -0.0166,-0.14907 -0.0581,-0.29537 -0.0166,-0.14908 -0.0553,-0.27053 -0.0359,-0.0966 -0.0691,-0.16837 -0.0111,-0.0994 -0.0222,-0.19877 l -2.27786,-11.16622 q -0.35847,0.84498 -1.13053,2.7172 -0.77483,1.84736 -1.64616,3.95705 -0.59005,1.47457 -1.1608,2.89666 -0.57353,1.39726 -1.00919,2.4521 -0.08,0.18502 -0.15994,0.37003 -0.0551,0.18224 -0.13232,0.3921 -0.0165,0.0773 -0.0551,0.18224 -0.0414,0.0801 -0.08,0.18501 -0.2867,0.81182 -0.53481,1.51871 -0.22604,0.67927 -0.28393,0.83667 -0.12157,-0.18767 -0.47519,-0.6513 -0.32877,-0.46641 -0.69071,-1.00458 -0.0276,-0.0221 -0.0276,-0.0221 -0.003,-0.0248 -0.003,-0.0248 -0.12157,-0.18768 -0.24037,-0.3505 -0.11879,-0.16283 -0.23759,-0.32565 -3.29883,-4.76343 -5.38737,-7.47345 -2.08855,-2.71002 -2.50573,-3.29234 l 0.36381,9.56871 q 0.0139,0.12423 0.006,0.27608 -0.008,0.15184 0.014,0.35061 0.003,0.25123 0.0113,0.55215 0.008,0.30092 0.0417,0.59907 0.006,0.0497 0.0111,0.0994 0.006,0.0497 0.008,0.0745 0.0416,0.37269 0.13013,0.71498 0.11336,0.33952 0.29017,0.57133 0.14642,0.1849 0.46121,0.30069 0.31479,0.11579 0.6765,0.20119 0.0497,-0.006 0.10215,0.0137 0.0525,0.0193 0.10216,0.0138 0.10493,0.0386 0.20986,0.0772 0.127,0.011 0.23193,0.0496 l 0.72341,0.1708 -6.48472,0.7239 0.40019,-0.24592 q 0.0745,-0.008 0.12146,-0.0387 0.0718,-0.0332 0.14352,-0.0663 0.069,-0.058 0.14076,-0.0912 0.0718,-0.0332 0.14352,-0.0663 0.40296,-0.22107 0.75623,-0.43659 0.3505,-0.24037 0.47184,-0.50547 0.0965,-0.26232 0.0989,-0.91663 -3.5e-4,-0.67915 -0.0339,-1.43007 -0.0194,-0.17392 -0.036,-0.32299 0.005,-0.1767 -0.014,-0.35062 0.005,-0.85584 -0.023,-1.78345 -0.006,-0.95523 -0.0617,-1.90492 -0.0728,-2.00429 -0.20074,-3.82635 -0.10309,-1.82482 -0.1395,-2.82697 -0.0224,-0.65154 -0.0834,-1.19814 -0.0362,-0.54938 -0.0972,-1.09598 -0.025,-0.22362 -0.0527,-0.47207 -0.0277,-0.24846 -0.0555,-0.49692 -0.0194,-0.17392 -0.0361,-0.32299 -0.0194,-0.17392 -0.0388,-0.34784 l 1.43828,-0.18571 q 0.10227,0.24014 0.24048,0.57688 0.16029,0.30913 0.35096,0.66517 0.0663,0.14353 0.13267,0.28705 0.0663,0.14353 0.15751,0.28428 0.0332,0.0718 0.0663,0.14353 0.058,0.069 0.0912,0.14076 l -0.003,-0.0249 z"
           inkscape:connector-curvature="0" />
        <path
           id="path4295"
           style="font-style:normal;font-variant:normal;font-weight:normal;font-stretch:normal;font-size:25.00000191px;font-family:Augustus;-inkscape-font-specification:Augustus;fill:#373c3d;fill-opacity:1;stroke-width:1.00000012;stroke-miterlimit:4;stroke-dasharray:none"
           d="m 709.70371,333.48742 q 0.0513,0.0223 0.10119,0.0196 0.0749,-0.004 0.14979,-0.008 0.0499,-0.003 0.0998,-0.005 0.0749,-0.004 0.12482,-0.007 3.91935,-0.21066 6.9284,2.20633 3.00906,2.41698 3.34238,6.75535 0.28474,4.36601 -2.64361,7.17723 -2.92968,2.78625 -7.10135,2.96039 -3.92068,0.18569 -6.81565,-2.43771 -2.87135,-2.64972 -3.08603,-6.64395 -0.20932,-3.89438 2.41543,-6.76439 2.62475,-2.87001 6.48612,-3.22776 l -0.001,-0.025 z m 0.0502,1.39933 q -3.38839,0.3073 -5.2567,2.81118 -1.84469,2.47757 -1.64932,5.64666 0.21362,3.04292 2.44611,5.45157 2.23249,2.40865 5.48854,2.43394 0.0749,-0.004 0.12482,-0.007 0.0749,-0.004 0.12482,-0.007 0.0513,0.0223 0.1012,0.0196 0.0749,-0.004 0.14978,-0.008 3.04561,-0.1637 5.17563,-2.45632 2.12869,-2.31759 1.94352,-5.76261 -0.18113,-3.37014 -2.61736,-5.84295 -2.41126,-2.47416 -5.75509,-2.2694 -0.025,0.001 -0.0749,0.004 -0.025,10e-4 -0.0499,0.003 -0.0499,0.003 -0.0749,0.004 -0.025,10e-4 -0.0749,0.004 l -10e-4,-0.025 z"
           inkscape:connector-curvature="0" />
        <path
           id="path4297"
           style="font-style:normal;font-variant:normal;font-weight:normal;font-stretch:normal;font-size:25.00000191px;font-family:Augustus;-inkscape-font-specification:Augustus;fill:#373c3d;fill-opacity:1;stroke-width:1.00000012;stroke-miterlimit:4;stroke-dasharray:none"
           d="m 731.24579,343.13612 -0.50027,0.0986 2.76646,3.08269 q 0.44854,0.52624 0.8223,0.97728 0.39882,0.42611 0.77264,0.85214 0.0997,0.12528 0.1993,0.25056 0.12472,0.10034 0.22438,0.22562 0.2991,0.32583 0.62319,0.65173 0.3491,0.32597 0.72306,0.70201 0.22444,0.20062 0.37396,0.37604 0.17458,0.15048 0.34916,0.30097 0.0998,0.0753 0.17459,0.15048 0.0998,0.0753 0.22458,0.15062 0.22458,0.15063 0.4991,0.32639 0.29958,0.15083 0.74896,0.37708 l 0.67416,0.30187 -0.82555,0.19771 q -0.0501,0.0249 -0.12507,0.0247 -0.075,-2e-4 -0.175,-4.8e-4 -0.4,-10e-4 -0.99958,-0.15277 -0.57465,-0.1266 -1.19909,-0.32833 -0.69924,-0.27694 -1.69646,-1.27971 -0.97222,-1.0027 -2.01903,-2.1556 -0.0249,-0.0251 -0.0499,-0.0251 -0.0249,-0.0251 -0.0249,-0.0501 -0.22438,-0.22563 -0.42375,-0.45118 -0.19938,-0.22555 -0.39876,-0.45111 l -3.63917,-3.9101 -0.675,-0.002 -0.0164,5.92497 q -10e-4,0.425 0.0229,0.75007 0.0492,0.30014 0.29833,0.60083 0.14945,0.20042 0.52403,0.35145 0.39965,0.12611 0.82437,0.22729 0.0749,0.0252 0.12486,0.0503 0.0749,0.0252 0.14993,0.0254 0.19986,0.0506 0.37466,0.12604 0.17486,0.0505 0.32472,0.1009 l 0.54944,0.20153 -8.47497,-0.0235 0.57549,-0.17341 q 0.20006,-0.0244 0.45027,-0.0987 0.27521,-0.0742 0.55041,-0.14847 0.27528,-0.0992 0.52549,-0.17355 0.25027,-0.0993 0.42555,-0.19882 0.15014,-0.0496 0.22535,-0.12437 0.1002,-0.0747 0.15034,-0.12459 0.12542,-0.14965 0.1759,-0.32451 0.0506,-0.19986 0.0761,-0.39979 4.2e-4,-0.15 7.6e-4,-0.275 4.2e-4,-0.15 8.4e-4,-0.3 7e-5,-0.025 2e-4,-0.075 1.4e-4,-0.05 2.1e-4,-0.075 l 0.0376,-13.54995 q 9e-4,-0.325 -0.0483,-0.60013 -0.0242,-0.27507 -0.22354,-0.52562 -0.17444,-0.20049 -0.57396,-0.3766 -0.37444,-0.20104 -0.79895,-0.37721 -0.24973,-0.1007 -0.49952,-0.17639 -0.22472,-0.10062 -0.42451,-0.17618 l -0.54937,-0.22652 4.54998,0.0126 q 0.37493,0.026 0.69993,0.0269 0.32506,-0.0241 0.65013,-0.0482 0.05,1.4e-4 0.1,2.7e-4 0.05,1.4e-4 0.1,2.8e-4 0.275,7.6e-4 0.55,0.002 0.27507,-0.0242 0.57507,-0.0234 0.275,7.6e-4 0.54993,0.0265 0.29999,8.3e-4 0.62492,0.0267 0.19993,0.0256 0.37486,0.051 0.19993,0.0256 0.39986,0.0511 1.4991,0.32915 2.77063,1.58268 1.27153,1.25354 1.26536,3.47853 -0.005,1.69999 -0.85742,2.67263 -0.8277,0.97271 -1.82908,1.46993 -0.45062,0.22376 -0.90104,0.37251 -0.45041,0.14875 -0.82569,0.24771 l 7e-5,-0.025 z m -1.12566,-8.77816 q -0.0751,0.0248 -0.15007,0.0246 -0.05,-1.4e-4 -0.0999,-0.0253 -0.075,-2.1e-4 -0.15,-4.1e-4 -0.05,-1.4e-4 -0.125,-3.5e-4 -0.025,-7e-5 -0.05,-1.4e-4 -0.025,-7e-5 -0.05,-1.4e-4 -0.475,-0.001 -0.9252,0.0724 -0.42514,0.0488 -0.57542,0.1484 -0.22541,0.14938 -0.27611,0.39924 -0.0257,0.24993 -0.0264,0.52493 -7e-5,0.025 -1.4e-4,0.05 0,0 -7e-5,0.025 l -0.0187,6.74997 1.17506,-0.0217 q 1.97499,0.005 3.40297,-1.06557 1.42804,-1.09605 1.40796,-2.87111 2.1e-4,-0.075 4.2e-4,-0.15 2.1e-4,-0.075 4.2e-4,-0.15 -0.12078,-1.52534 -1.09314,-2.47804 -0.94729,-0.97763 -2.0968,-1.15582 -0.0749,-0.0252 -0.17493,-0.0255 -0.0749,-0.0252 -0.17493,-0.0255 l 7e-5,-0.025 z"
           inkscape:connector-curvature="0" />
      </g>
      <g
         id="g4681"
         style="stroke-width:1.00000012;stroke-miterlimit:4;stroke-dasharray:none"
         transform="translate(1.4454929,0)">
        <g
           style="fill:#97acae;fill-opacity:1;fill-rule:evenodd;stroke:#768687;stroke-width:1.00000012;stroke-linecap:butt;stroke-linejoin:miter;stroke-miterlimit:4;stroke-dasharray:none;stroke-opacity:1"
           id="g4683">
          <path
             style="fill:#768687;fill-opacity:1;stroke:#768687;stroke-width:1.00000012;stroke-miterlimit:4;stroke-dasharray:none;stroke-opacity:1"
             d="m 966.00539,221.8618 c 5.29442,-14.00782 31.81485,-4.59684 33.93606,-16.62679 l -4.34121,24.62019 c -2.1212,12.02995 -28.64163,2.61897 -33.93605,16.62679 z"
             id="path4689"
             inkscape:connector-curvature="0" />
          <path
             style="fill:#768687;fill-opacity:1;stroke:#768687;stroke-width:1.00000012;stroke-miterlimit:4;stroke-dasharray:none;stroke-opacity:1"
             d="m 801.08583,198.59701 c -0.35447,2.01032 -0.3589,4.1085 0.018,6.29422 l -4.3412,24.62019 c -0.37692,-2.18572 -0.37248,-4.2839 -0.018,-6.29421 z"
             id="path4695"
             inkscape:connector-curvature="0" />
          <path
             style="fill:#768687;fill-opacity:1;stroke:#768687;stroke-width:1.00000012;stroke-miterlimit:4;stroke-dasharray:none;stroke-opacity:1"
             d="m 801.10384,204.89123 c 2.15196,12.47926 29.89519,2.83152 33.98921,16.97057 l -4.3412,24.62019 c -4.09402,-14.13905 -31.83725,-4.49131 -33.98921,-16.97057 z"
             id="path4697"
             inkscape:connector-curvature="0" />
          <path
             style="fill:#97acae;fill-opacity:1;stroke:#768687;stroke-width:1.00000012;stroke-miterlimit:4;stroke-dasharray:none;stroke-opacity:1"
             d="m 991.8148,221.8618 c 0,0 -27.2173,7.59179 -25.99402,0.65425 l -4.34121,24.6202 c -1.22327,6.93753 25.99403,-0.65426 25.99403,-0.65426 z"
             id="path4685"
             inkscape:connector-curvature="0" />
          <path
             style="fill:#97acae;fill-opacity:1;stroke:#768687;stroke-width:1.00000012;stroke-miterlimit:4;stroke-dasharray:none;stroke-opacity:1"
             d="m 965.82078,222.51605 c 0.0362,-0.20518 0.0972,-0.42307 0.18461,-0.65425 l -4.3412,24.62019 c -0.0874,0.23118 -0.14844,0.44907 -0.18462,0.65426 z"
             id="path4687"
             inkscape:connector-curvature="0" />
          <path
             style="fill:#97acae;fill-opacity:1;stroke:#768687;stroke-width:1.00000012;stroke-miterlimit:4;stroke-dasharray:none;stroke-opacity:1"
             d="m 999.94145,205.23501 c 0.0199,-0.1127 0.0376,-0.22728 0.0531,-0.34378 l -4.3412,24.62019 c -0.0156,0.1165 -0.0333,0.23108 -0.0532,0.34378 z"
             id="path4691"
             inkscape:connector-curvature="0" />
          <path
             style="fill:#97acae;fill-opacity:1;stroke:#768687;stroke-width:1.00000012;stroke-miterlimit:4;stroke-dasharray:none;stroke-opacity:1"
             d="m 999.9946,204.89123 c 6.979,-52.28017 -190.66337,-53.05619 -198.90877,-6.29422 l -4.3412,24.6202 c 8.2454,-46.76197 205.88777,-45.98596 198.90877,6.29421 z"
             id="path4693"
             inkscape:connector-curvature="0" />
          <path
             style="fill:#97acae;fill-opacity:1;stroke:#768687;stroke-width:1.00000012;stroke-miterlimit:4;stroke-dasharray:none;stroke-opacity:1"
             d="m 835.09305,221.8618 c 0.14583,0.50364 0.17802,0.94589 0.10987,1.33237 l -4.3412,24.62019 c 0.0681,-0.38647 0.036,-0.82872 -0.10987,-1.33237 z"
             id="path4699"
             inkscape:connector-curvature="0" />
          <path
             style="fill:#97acae;fill-opacity:1;stroke:#768687;stroke-width:1.00000012;stroke-miterlimit:4;stroke-dasharray:none;stroke-opacity:1"
             d="m 835.20292,223.19417 c -1.04998,5.95473 -25.91927,-1.33237 -25.91927,-1.33237 l -4.3412,24.62019 c 0,0 24.86929,7.2871 25.91927,1.33237 z"
             id="path4701"
             inkscape:connector-curvature="0" />
          <g
             id="text4804"
             style="font-style:normal;font-variant:normal;font-weight:normal;font-stretch:normal;font-size:25.00000191px;line-height:125%;font-family:Augustus;-inkscape-font-specification:Augustus;letter-spacing:0px;word-spacing:0px;fill:#373c3d;fill-opacity:1;stroke:none;stroke-width:1.00000012;stroke-linecap:butt;stroke-linejoin:miter;stroke-miterlimit:4;stroke-dasharray:none;stroke-opacity:1">
            <path
               id="path4812"
               style="fill:#373c3d;fill-opacity:1;stroke:none;stroke-width:1.00000012;stroke-miterlimit:4;stroke-dasharray:none;stroke-opacity:1"
               d="m 839.80004,184.37982 -0.46522,0.20871 3.38948,2.38069 q 0.55551,0.41175 1.02121,0.76706 0.48451,0.32537 0.94466,0.65631 0.1253,0.0996 0.2506,0.19925 0.14411,0.0697 0.26941,0.16931 0.36478,0.25013 0.75393,0.49469 0.41352,0.23901 0.86254,0.52119 0.26385,0.14494 0.44902,0.28219 0.20398,0.10732 0.40797,0.21463 0.11417,0.0509 0.20398,0.10732 0.11417,0.0509 0.25273,0.0962 0.25273,0.0962 0.55976,0.20564 0.32585,0.0795 0.81463,0.19877 l 0.72482,0.14234 -0.75984,0.3785 q -0.0432,0.0355 -0.11631,0.0522 -0.0731,0.0167 -0.17062,0.0389 -0.38997,0.089 -1.00831,0.0762 -0.5884,0.006 -1.24223,-0.0499 -0.74363,-0.1124 -1.94102,-0.86491 -1.17301,-0.75806 -2.45251,-1.64569 -0.0299,-0.0188 -0.0543,-0.0132 -0.0299,-0.0188 -0.0355,-0.0432 -0.26941,-0.16931 -0.51445,-0.34419 -0.24504,-0.17487 -0.49008,-0.34974 l -4.42607,-2.99038 -0.65809,0.15014 1.31797,5.77656 q 0.0945,0.41435 0.1912,0.72565 0.11548,0.28136 0.42595,0.51823 0.19073,0.16163 0.5897,0.22445 0.41778,0.0329 0.85438,0.0359 0.0787,0.008 0.13299,0.0209 0.0787,0.008 0.1518,-0.009 0.20611,0.004 0.39341,0.0385 0.18174,0.01 0.33911,0.0252 l 0.5807,0.0726 -8.26267,1.88519 0.52167,-0.29852 q 0.18943,-0.0689 0.41648,-0.19759 0.25143,-0.13429 0.50286,-0.26859 0.24586,-0.15866 0.47292,-0.28739 0.22149,-0.15311 0.36986,-0.28953 0.13512,-0.0821 0.19156,-0.17192 0.0808,-0.0954 0.11844,-0.15523 0.0885,-0.17405 0.0983,-0.35579 0.004,-0.20611 -0.0159,-0.40666 -0.0334,-0.14624 -0.0612,-0.26811 -0.0334,-0.14624 -0.0667,-0.29248 -0.006,-0.0244 -0.0167,-0.0731 -0.0111,-0.0487 -0.0167,-0.0731 l -3.01408,-13.21052 q -0.0723,-0.31686 -0.18221,-0.57385 -0.0855,-0.26255 -0.33614,-0.4618 -0.21511,-0.15606 -0.64401,-0.2377 -0.41009,-0.11157 -0.86337,-0.18765 -0.26598,-0.0419 -0.5264,-0.0594 -0.24161,-0.0474 -0.45328,-0.0761 l -0.58627,-0.097 4.436,-1.01211 q 0.37117,-0.059 0.68803,-0.13134 0.31129,-0.0967 0.62259,-0.19333 0.0488,-0.0111 0.0975,-0.0222 0.0488,-0.0111 0.0975,-0.0223 0.26811,-0.0612 0.53622,-0.12234 0.26255,-0.0855 0.55503,-0.15228 0.26811,-0.0612 0.54178,-0.098 0.29249,-0.0667 0.6149,-0.11465 0.20055,-0.0201 0.37673,-0.0347 0.20055,-0.0201 0.4011,-0.0402 1.53471,-0.0168 3.05582,0.91827 1.52111,0.93507 2.01604,3.10432 0.37815,1.65741 -0.23367,2.79706 -0.58745,1.13409 -1.45118,1.844 -0.38867,0.31946 -0.79403,0.5658 -0.40536,0.24634 -0.74872,0.42725 l -0.006,-0.0244 z m -3.07311,-8.29935 q -0.0675,0.0411 -0.14068,0.0577 -0.0487,0.0111 -0.10305,-0.002 -0.0731,0.0167 -0.14624,0.0334 -0.0487,0.0111 -0.12187,0.0278 -0.0244,0.006 -0.0488,0.0111 -0.0244,0.006 -0.0488,0.0111 -0.4631,0.10566 -0.88514,0.27888 -0.40323,0.14328 -0.52723,0.27414 -0.18599,0.1963 -0.17913,0.45115 0.0312,0.2493 0.0924,0.51741 0.006,0.0244 0.0111,0.0487 0,0 0.006,0.0244 l 1.50148,6.58089 1.14,-0.28574 q 1.92552,-0.43932 3.07569,-1.80437 1.14462,-1.38942 0.72541,-3.11439 -0.0167,-0.0731 -0.0334,-0.14624 -0.0167,-0.0731 -0.0334,-0.14624 -0.46109,-1.45899 -1.62299,-2.16831 -1.14308,-0.73925 -2.30319,-0.65406 -0.0787,-0.008 -0.17618,0.0146 -0.0787,-0.008 -0.17617,0.0146 l -0.006,-0.0244 z"
               inkscape:connector-curvature="0" />
            <path
               id="path4814"
               style="fill:#373c3d;fill-opacity:1;stroke:none;stroke-width:1.00000012;stroke-miterlimit:4;stroke-dasharray:none;stroke-opacity:1"
               d="m 849.18222,172.36251 12.40416,-1.73565 0.54339,4.06391 -0.48519,-0.94185 q -0.0634,-0.0921 -0.13022,-0.20897 -0.0421,-0.12033 -0.10545,-0.21244 -0.1723,-0.3293 -0.35549,-0.5561 -0.16191,-0.25502 -0.48673,-0.41152 -0.21539,-0.0961 -0.47337,-0.13571 -0.25798,-0.0396 -0.50903,-0.0297 -0.14856,0.0208 -0.29711,0.0416 -0.12726,-0.007 -0.27581,0.0134 l -3.0488,0.40135 q -0.0461,0.0317 -0.0956,0.0386 -0.0495,0.007 -0.12379,0.0173 -0.29711,0.0416 -0.59075,0.10791 -0.26888,0.0629 -0.39665,0.2322 -0.0852,0.11289 -0.0753,0.36395 0.006,0.22629 0.0445,0.49864 0,0 0.003,0.0248 0,0 0.003,0.0248 0.003,0.0248 0.0104,0.0743 0.003,0.0248 0.007,0.0495 l 0.82798,5.91735 3.51575,-0.49194 q 0.15202,0.004 0.30057,-0.0168 0.14855,-0.0208 0.2971,-0.0416 0.29711,-0.0416 0.54123,-0.10098 0.26542,-0.0876 0.464,-0.29211 0.0426,-0.0565 0.0886,-0.0881 0.0426,-0.0564 0.0604,-0.10942 0.10994,-0.11636 0.1456,-0.22232 0.0604,-0.10943 0.11391,-0.26838 l 0.3675,-1.16214 0.81412,5.81832 -0.30251,-0.53827 q -0.0352,-0.0708 -0.0985,-0.16292 -0.0386,-0.0956 -0.0772,-0.19114 -0.0317,-0.0461 -0.0599,-0.0674 -0.007,-0.0495 -0.0386,-0.0956 -0.17923,-0.37882 -0.40104,-0.70119 -0.20052,-0.3506 -0.49365,-0.46104 -0.16241,-0.0782 -0.31789,-0.10698 -0.15548,-0.0287 -0.3075,-0.0327 -0.15202,-0.004 -0.32533,0.0203 -0.14855,0.0208 -0.34662,0.0485 -0.0248,0.003 -0.0743,0.0104 -0.0248,0.003 -0.0495,0.007 l -3.643,0.4845 0.85223,6.09067 q 0.0173,0.12379 0.0381,0.27235 0.0455,0.14508 0.0876,0.26541 0.0876,0.26542 0.19308,0.47786 0.12675,0.18421 0.2857,0.2377 0.21193,0.0713 0.36394,0.0753 0.17678,5.1e-4 0.35009,-0.0237 0.0743,-0.0104 0.12379,-0.0173 0.0743,-0.0104 0.14509,-0.0455 0.0495,-0.007 0.1238,-0.0173 0.0743,-0.0104 0.14855,-0.0208 l 4.05698,-0.59292 q 0.0777,0.0144 0.15202,0.004 0.0743,-0.0104 0.14855,-0.0208 0.053,0.0178 0.12726,0.007 0.0743,-0.0104 0.14855,-0.0208 0.12379,-0.0173 0.24412,-0.0594 0.12033,-0.0421 0.2372,-0.10892 0.18421,-0.12675 0.26643,-0.44118 0.10698,-0.31789 0.17881,-0.70659 0.0144,-0.0777 0.0287,-0.15548 0.0109,-0.1025 0.0253,-0.18024 0.0287,-0.15549 0.0575,-0.31097 0.0535,-0.15894 0.0857,-0.28967 l 0.21101,-0.83731 0.43743,4.02824 -13.12217,1.83611 0.5452,-0.25299 q 0.19461,-0.0525 0.4318,-0.16139 0.26196,-0.11239 0.52391,-0.22477 0.23373,-0.13368 0.47093,-0.2426 0.23373,-0.13368 0.41794,-0.26043 0.11687,-0.0668 0.20551,-0.15497 0.0886,-0.0881 0.13123,-0.14458 0.10301,-0.16588 0.12827,-0.34612 0.0218,-0.205 0.0188,-0.40653 -0.0104,-0.0743 -0.0208,-0.14856 -0.0104,-0.0743 -0.0208,-0.14855 -0.0173,-0.12379 -0.0312,-0.22283 -0.0139,-0.099 -0.0277,-0.19807 l -1.87767,-13.41927 q -0.0139,-0.099 -0.0312,-0.22283 -0.0208,-0.14855 -0.0346,-0.24759 -0.0346,-0.24759 -0.11187,-0.43873 -0.0559,-0.21936 -0.25697,-0.39318 -0.0564,-0.0426 -0.16587,-0.10301 -0.10943,-0.0604 -0.24015,-0.0926 -0.21193,-0.0713 -0.46991,-0.11096 -0.26145,-0.0644 -0.52289,-0.12878 -0.28274,-0.0362 -0.56548,-0.0723 -0.25798,-0.0396 -0.46298,-0.0614 l -0.59717,-0.11839 0,0 z"
               inkscape:connector-curvature="0" />
            <path
               id="path4816"
               style="fill:#373c3d;fill-opacity:1;stroke:none;stroke-width:1.00000012;stroke-miterlimit:4;stroke-dasharray:none;stroke-opacity:1"
               d="m 870.68503,169.40657 q 0.89887,-0.0515 1.73151,0.003 0.85542,0.0275 1.41617,0.13021 0.0498,-0.004 0.10176,0.0164 0.0747,-0.006 0.12668,0.0143 l 0.5088,0.0821 0.45955,4.80333 -1.26275,-2.45163 q -0.42303,-0.84212 -1.16877,-1.05456 -0.74786,-0.23735 -1.89795,-0.18951 -0.0249,0.002 -0.0498,0.004 -0.0249,0.002 -0.0498,0.004 -0.0249,0.002 -0.0498,0.004 -0.0249,0.002 -0.0498,0.004 -1.5195,0.1295 -2.47654,1.26487 -0.93426,1.10834 -0.81113,2.55311 0.0807,0.94656 0.73795,1.59309 0.68006,0.61948 1.44278,1.0312 0.41979,0.21513 0.78551,0.38469 0.3885,0.14252 0.67312,0.24372 0.20777,0.0827 0.39063,0.16743 0.20777,0.0827 0.41554,0.16531 1.89696,0.76668 3.38531,1.74383 1.51327,0.97501 1.73929,3.03827 0.26212,2.48673 -1.29432,3.94918 -1.55643,1.46245 -4.14492,1.70815 -0.12455,0.0106 -0.24909,0.0212 -0.12455,0.0106 -0.25122,-0.004 -0.42559,0.0112 -0.85543,-0.0275 -0.42771,-0.0137 -0.78281,-0.0587 -0.30529,-0.0493 -0.55863,-0.0778 -0.25334,-0.0286 -0.40492,-0.0408 l -1.0966,-0.20763 -0.52791,-4.72223 1.03375,2.11987 q 0.42941,0.91685 1.21067,1.25172 0.80617,0.33274 1.66371,0.38511 0.15158,0.0122 0.27826,0.0265 0.14945,-0.0127 0.27612,0.002 0.0747,-0.006 0.12668,0.0143 0.0747,-0.006 0.12454,-0.0106 0.0498,-0.004 0.0996,-0.008 0.0747,-0.006 0.14946,-0.0127 1.46967,-0.12525 2.51418,-1.11753 1.06942,-0.99441 0.92563,-2.38723 -0.002,-0.0249 -0.004,-0.0498 -0.002,-0.0249 -0.004,-0.0498 0,0 -0.002,-0.0249 -0.002,-0.0249 -0.004,-0.0498 -0.18725,-1.31384 -1.06871,-1.94126 -0.85868,-0.65444 -2.02844,-1.13183 -0.33869,-0.14677 -0.70228,-0.29142 -0.33869,-0.14677 -0.70441,-0.31632 -0.4696,-0.21089 -0.91218,-0.39899 -0.41766,-0.19022 -0.83532,-0.38044 -1.30705,-0.61623 -2.18059,-1.44504 -0.87353,-0.82882 -1.12178,-2.56401 -0.002,-0.0249 -0.004,-0.0498 -0.004,-0.0498 -0.006,-0.0747 -0.002,-0.0249 -0.004,-0.0498 -0.004,-0.0498 -0.006,-0.0747 -0.19743,-2.3166 1.43585,-3.76052 1.65607,-1.47094 3.82109,-1.68055 l -0.002,-0.0249 z"
               inkscape:connector-curvature="0" />
            <path
               id="path4818"
               style="fill:#373c3d;fill-opacity:1;stroke:none;stroke-width:1.00000012;stroke-miterlimit:4;stroke-dasharray:none;stroke-opacity:1"
               d="m 892.83898,174.3317 q 0.002,0.05 0.003,0.075 0,0 0,0 8.8e-4,0.025 0.002,0.05 0,0 8.8e-4,0.025 0.0737,2.09871 -1.7458,3.71353 -1.79448,1.61395 -4.01285,1.84192 -0.12405,0.0294 -0.24897,0.0337 -0.0999,0.004 -0.22486,0.008 -0.3248,0.0114 -0.65048,-0.002 -0.30157,-0.0394 -0.629,-0.103 l -0.90734,-0.19329 0.18418,5.24677 q 0.0149,0.42474 0.0513,0.74866 0.0605,0.29806 0.32086,0.58911 0.15693,0.19461 0.53608,0.30638 0.37916,0.11177 0.80828,0.22178 0.0758,0.0223 0.15166,0.0447 0.075,-0.003 0.15079,0.0197 0.20163,0.0429 0.37915,0.11177 0.17665,0.0438 0.32831,0.0885 l 0.55668,0.18058 -8.46979,0.29733 0.56851,-0.19507 q 0.199,-0.032 0.44622,-0.11572 0.27219,-0.0846 0.54439,-0.16921 0.24634,-0.1087 0.49356,-0.19243 0.24634,-0.10871 0.4427,-0.21566 0.12317,-0.0544 0.22048,-0.13282 0.0973,-0.0785 0.14552,-0.13019 0.0706,-0.12755 0.11703,-0.22924 0.0706,-0.12756 0.0912,-0.25336 0.0206,-0.1258 0.0162,-0.25072 0.0206,-0.1258 0.0171,-0.22574 -0.003,-0.075 -0.004,-0.12492 -0.003,-0.075 -0.004,-0.12492 -0.0276,-0.0741 -0.0294,-0.12405 -0.003,-0.075 -0.004,-0.12492 l -0.47537,-13.54166 q -0.0114,-0.3248 -0.071,-0.59788 -0.0346,-0.27395 -0.24328,-0.51678 -0.18191,-0.19374 -0.58781,-0.3546 -0.38178,-0.18672 -0.81266,-0.3467 -0.25335,-0.0912 -0.50583,-0.15735 -0.22837,-0.0921 -0.43088,-0.15999 l -0.55755,-0.20556 4.5472,-0.15963 q 0.37564,0.0118 0.72543,-4.5e-4 0.3489,-0.0373 0.6737,-0.0487 0.075,-0.003 0.12493,-0.004 0.05,-0.002 0.0999,-0.004 0.27396,-0.0346 0.54879,-0.0443 0.29981,-0.0105 0.59963,-0.021 0.24985,-0.009 0.52468,-0.0184 0.27483,-0.01 0.55054,0.006 0.27483,-0.01 0.5764,0.0298 0.30157,0.0394 0.60401,0.10388 1.5622,0.32039 2.93375,1.62307 1.37154,1.30269 1.53245,3.74855 l -8.8e-4,-0.025 z m -6.29707,-4.08159 q -0.0741,0.0276 -0.14903,0.0302 -0.0749,0.003 -0.17489,0.006 -0.12492,0.004 -0.24984,0.009 -0.0999,0.004 -0.22487,0.008 -0.42386,0.0399 -0.82186,0.10389 -0.37301,0.0631 -0.51941,0.16833 -0.2196,0.1578 -0.2608,0.4094 -0.0162,0.25072 -0.007,0.52556 8.8e-4,0.025 0.002,0.05 0,0 8.8e-4,0.025 l 0.24469,6.97071 0.75305,0.0736 q 0.30245,0.0644 0.57816,0.0798 0.30069,0.0145 0.57552,0.005 1.92381,-0.0675 3.23439,-1.21422 1.31058,-1.14668 1.24129,-3.12046 -0.003,-0.075 -0.004,-0.12493 -0.003,-0.075 -0.004,-0.12492 -0.13371,-1.67134 -1.03887,-2.5151 -0.90604,-0.86875 -1.91682,-1.15847 -0.32831,-0.0885 -0.65487,-0.1271 -0.30157,-0.0395 -0.60226,-0.0539 l -8.8e-4,-0.025 z"
               inkscape:connector-curvature="0" />
            <path
               id="path4820"
               style="fill:#373c3d;fill-opacity:1;stroke:none;stroke-width:1.00000012;stroke-miterlimit:4;stroke-dasharray:none;stroke-opacity:1"
               d="m 894.99596,168.65314 12.52322,0.21177 -0.0943,4.099 -0.33305,-1.00578 q -0.0483,-0.10083 -0.0962,-0.22666 -0.0229,-0.1254 -0.0712,-0.22623 -0.11907,-0.35207 -0.26482,-0.60457 -0.12033,-0.27707 -0.41691,-0.48212 -0.19785,-0.12836 -0.44655,-0.20758 -0.2487,-0.0792 -0.49824,-0.10844 -0.14998,-0.003 -0.29995,-0.005 -0.12456,-0.0271 -0.27454,-0.0296 l -3.07414,-0.077 q -0.0504,0.0242 -0.10041,0.0233 -0.05,-8.4e-4 -0.12498,-0.002 -0.29996,-0.005 -0.60034,0.0148 -0.27538,0.0204 -0.4279,0.16779 -0.10167,0.0983 -0.1309,0.34784 -0.0288,0.22454 -0.0335,0.4995 0,0 -4.2e-4,0.025 0,0 -4.2e-4,0.025 -4.2e-4,0.025 -10e-4,0.075 -4.2e-4,0.025 -8.5e-4,0.05 l -0.10102,5.97415 3.54949,0.06 q 0.14956,0.0275 0.29954,0.0301 0.14998,0.003 0.29996,0.005 0.29995,0.005 0.55034,-0.0157 0.27581,-0.0453 0.50373,-0.21651 0.0508,-0.0491 0.10126,-0.0733 0.0508,-0.0491 0.0767,-0.0987 0.12667,-0.0979 0.17835,-0.19701 0.0767,-0.0987 0.15421,-0.24743 l 0.54352,-1.09097 -0.0993,5.87417 -0.21525,-0.57873 q -0.0237,-0.0754 -0.072,-0.17624 -0.0233,-0.10041 -0.0466,-0.20082 -0.0241,-0.0504 -0.0487,-0.0758 8.4e-4,-0.05 -0.0233,-0.10041 -0.11822,-0.40206 -0.28728,-0.75496 -0.14363,-0.37749 -0.41606,-0.53212 -0.14829,-0.10252 -0.29742,-0.15505 -0.14913,-0.0525 -0.29869,-0.0801 -0.14955,-0.0275 -0.32453,-0.0305 -0.14998,-0.003 -0.34995,-0.006 -0.025,-4.2e-4 -0.075,-10e-4 -0.025,-4.2e-4 -0.05,-8.4e-4 l -3.67405,-0.0871 -0.10399,6.14912 q -0.002,0.12498 -0.005,0.27496 0.0225,0.1504 0.0453,0.2758 0.0453,0.27581 0.11653,0.50205 0.0966,0.20166 0.24531,0.27918 0.19828,0.10337 0.34784,0.1309 0.17455,0.028 0.34952,0.0309 0.075,10e-4 0.12499,0.002 0.075,0.001 0.1504,-0.0225 0.05,8.5e-4 0.12498,0.002 0.075,0.001 0.14998,0.003 l 4.09983,0.0443 q 0.0746,0.0263 0.14956,0.0275 0.075,0.001 0.14998,0.003 0.0496,0.0258 0.12456,0.0271 0.075,0.001 0.14998,0.003 0.12498,0.002 0.25038,-0.0208 0.12541,-0.0229 0.25124,-0.0708 0.20166,-0.0966 0.33171,-0.39445 0.15505,-0.29742 0.28638,-0.67025 0.0263,-0.0746 0.0525,-0.14914 0.0267,-0.0996 0.053,-0.17412 0.0525,-0.14914 0.10506,-0.29827 0.0775,-0.14871 0.12963,-0.27285 l 0.33848,-0.79439 -0.19346,4.04731 -13.24811,-0.22403 0.57788,-0.16525 q 0.20039,-0.0216 0.45162,-0.0924 0.27623,-0.0703 0.55246,-0.14068 0.25166,-0.0958 0.50289,-0.16652 0.25165,-0.0958 0.45332,-0.19236 0.12582,-0.0479 0.22708,-0.12118 0.10125,-0.0733 0.15209,-0.12245 0.12752,-0.14786 0.18047,-0.32199 0.0534,-0.19913 0.0818,-0.39868 10e-4,-0.075 0.003,-0.14997 0.001,-0.075 0.003,-0.14998 0.002,-0.12499 0.004,-0.22497 0.002,-0.1 0.003,-0.19997 l 0.2291,-13.54807 q 0.002,-0.1 0.004,-0.22496 0.003,-0.14998 0.004,-0.24997 0.004,-0.24996 -0.0424,-0.45078 -0.0212,-0.22539 -0.19279,-0.42832 -0.0491,-0.0508 -0.14786,-0.12752 -0.0987,-0.0767 -0.22286,-0.12879 -0.19828,-0.10336 -0.44697,-0.18258 -0.24828,-0.10421 -0.49655,-0.20842 -0.27369,-0.0796 -0.54739,-0.15928 -0.24869,-0.0792 -0.44782,-0.13259 l -0.57154,-0.2097 0,0 z"
               inkscape:connector-curvature="0" />
            <path
               id="path4822"
               style="fill:#373c3d;fill-opacity:1;stroke:none;stroke-width:1.00000012;stroke-miterlimit:4;stroke-dasharray:none;stroke-opacity:1"
               d="m 921.26589,169.0052 q 0.42376,0.0324 0.79767,0.061 0.37581,0.004 0.7248,0.0303 0.52347,0.04 0.99327,0.12609 0.49664,0.063 0.98947,0.17594 0.4679,0.111 0.93199,0.27184 0.49092,0.13783 1.00296,0.32742 l 0.70955,0.22976 -0.35816,5.01228 -0.48009,-1.59123 q -0.0403,-0.12845 -0.10558,-0.2588 -0.0384,-0.15338 -0.0768,-0.30675 -0.1613,-0.51379 -0.35325,-0.95471 -0.16702,-0.43901 -0.49885,-0.69004 -0.0479,-0.0287 -0.0959,-0.0575 -0.048,-0.0287 -0.11892,-0.0843 -0.43535,-0.20879 -1.29637,-0.42506 -0.83419,-0.23929 -1.77761,-0.36157 -0.17258,-0.0383 -0.34707,-0.0516 -0.1745,-0.0133 -0.34899,-0.0267 -0.0748,-0.006 -0.14956,-0.0114 -0.0748,-0.006 -0.12464,-0.01 -0.0767,0.0192 -0.15147,0.0135 -0.0499,-0.004 -0.12463,-0.01 -3.37852,-0.0828 -5.84908,2.06009 -2.46864,2.11797 -2.71816,5.7094 -0.23809,3.44186 1.96624,6.09263 2.23117,2.62774 5.84943,2.85424 0.14957,0.0114 0.29913,0.0229 0.15147,-0.0135 0.30103,-0.002 1.42848,0.009 2.76091,-0.36559 1.33243,-0.37451 1.92847,-0.95576 0.21658,-0.2091 0.41394,-0.49488 0.22419,-0.30881 0.42346,-0.61952 0.17243,-0.28769 0.34487,-0.57539 0.17434,-0.31261 0.31613,-0.52743 l 0.71466,-1.14886 -1.47973,5.25248 -0.92216,0.25544 q -0.28373,0.10367 -0.54062,0.18432 -0.25499,0.0557 -0.50998,0.11145 -1.06791,0.19415 -2.24712,0.20428 -1.15427,0.012 -2.9222,-0.14821 -0.42377,-0.0324 -0.84372,-0.11465 -0.41995,-0.0823 -0.83609,-0.21436 -2.87075,-0.82125 -5.12875,-3.42597 -2.258,-2.60472 -2.11009,-6.17884 0.004,-0.0499 0.006,-0.0748 0.004,-0.0499 0.008,-0.0997 0.002,-0.0249 0.006,-0.0748 0.004,-0.0499 0.006,-0.0748 0.32209,-4.2127 3.59398,-6.67042 3.29872,-2.48074 7.42696,-2.36569 l 0.002,-0.0249 z"
               inkscape:connector-curvature="0" />
            <path
               id="path4824"
               style="fill:#373c3d;fill-opacity:1;stroke:none;stroke-width:1.00000012;stroke-miterlimit:4;stroke-dasharray:none;stroke-opacity:1"
               d="m 931.49523,170.21474 0.9811,0.54768 11.6759,1.70688 1.35503,-0.28195 -0.85952,5.53387 -0.20413,-1.36893 q -0.0211,-0.0284 -0.0422,-0.0567 0.007,-0.0495 0.0109,-0.0742 -0.0278,-0.15565 -0.0556,-0.31131 -0.003,-0.15203 -0.0308,-0.30769 -0.10083,-0.52005 -0.23725,-0.96952 -0.1328,-0.47419 -0.46104,-0.64851 -0.11646,-0.0676 -0.23652,-0.11037 -0.12007,-0.0428 -0.24376,-0.0609 -0.12007,-0.0428 -0.24375,-0.0609 -0.12369,-0.0181 -0.27211,-0.0398 -0.0495,-0.007 -0.099,-0.0145 -0.0247,-0.004 -0.0742,-0.0109 l -3.26168,-0.50209 -2.11914,14.49592 q -0.0615,0.42053 -0.0838,0.74573 0.006,0.30408 0.21006,0.63709 0.11949,0.21959 0.46885,0.42226 0.37771,0.18154 0.78377,0.34197 0.0706,0.0356 0.11646,0.0676 0.0706,0.0356 0.1448,0.0464 0.19067,0.0784 0.35298,0.17793 0.16592,0.0748 0.30711,0.14596 l 0.51529,0.27745 -8.38587,-1.22591 0.59427,-0.09 q 0.20151,0.004 0.45973,-0.0339 0.28296,-0.0344 0.56591,-0.0689 0.26184,-0.0628 0.52006,-0.10083 0.26184,-0.0628 0.4742,-0.13281 0.13092,-0.0314 0.24071,-0.0911 0.1098,-0.0597 0.16651,-0.10198 0.0923,-0.11284 0.15623,-0.20456 0.0923,-0.11283 0.13511,-0.2329 0.0428,-0.12007 0.0609,-0.24376 0.0428,-0.12006 0.0573,-0.21901 0.0109,-0.0742 0.0181,-0.12369 0.0109,-0.0742 0.0181,-0.12368 -0.0139,-0.0778 -0.007,-0.12731 0.0109,-0.0742 0.0181,-0.12368 l 2.10829,-14.42171 -3.83424,-0.56053 q -0.12731,0.007 -0.25099,-0.0114 -0.0989,-0.0145 -0.20151,-0.004 -0.0531,0.0175 -0.13092,0.0314 -0.0531,0.0175 -0.10618,0.035 -0.32578,0.1545 -0.57126,0.62393 -0.24549,0.46942 -0.45235,1.02029 -0.0356,0.0706 -0.0748,0.16593 -0.0108,0.0742 -0.0464,0.14481 -0.0428,0.12007 -0.11037,0.23652 -0.0428,0.12007 -0.0856,0.24014 l -0.39506,0.80128 0.66104,-5.38603 0,0 z"
               inkscape:connector-curvature="0" />
            <path
               id="path4826"
               style="fill:#373c3d;fill-opacity:1;stroke:none;stroke-width:1.00000012;stroke-miterlimit:4;stroke-dasharray:none;stroke-opacity:1"
               d="m 964.84948,180.59428 -1.89138,7.59298 q -1.0454,4.19675 -3.60929,5.28428 -2.55785,1.06327 -5.3173,0.35014 -2.63816,-0.68292 -4.33776,-2.85824 -1.67534,-2.16927 -0.73871,-5.92937 l 2.18748,-8.78165 q 0.006,-0.0243 0.0181,-0.0728 0.0181,-0.0728 0.0605,-0.13951 0.0121,-0.0485 0.0302,-0.12129 0.0181,-0.0728 0.0363,-0.14555 0.0242,-0.097 0.018,-0.17586 0.0242,-0.097 0.0241,-0.20011 0.012,-0.15159 -0.006,-0.28497 -0.0123,-0.15764 -0.0791,-0.30311 -0.0364,-0.0606 -0.11533,-0.15755 -0.0789,-0.0969 -0.18812,-0.17567 -0.1699,-0.14538 -0.39436,-0.27858 -0.21841,-0.15747 -0.43683,-0.31493 -0.24872,-0.13925 -0.49743,-0.27849 -0.22446,-0.13321 -0.40645,-0.23007 l -0.50961,-0.33305 8.22371,2.0485 -0.58808,0.0854 q -0.16972,0.0608 -0.37588,0.0609 -0.20615,1.7e-4 -0.43657,-0.006 -0.0546,0.0122 -0.10912,0.0243 -0.0485,-0.0121 -0.10307,9e-5 -0.43657,-0.006 -0.86097,0.0432 -0.39409,0.0306 -0.58195,0.1642 -0.0363,0.0425 -0.0969,0.0789 -0.0303,0.0182 -0.0666,0.0607 -0.21202,0.23059 -0.30879,0.51565 -0.0907,0.2608 -0.17533,0.60043 l -2.2177,8.90294 q -0.72513,2.91105 0.27062,4.49881 1.02,1.59381 3.00344,2.4228 0.18803,0.0726 0.35179,0.13916 0.16982,0.0423 0.33963,0.0846 2.01347,0.50155 3.91038,-0.59754 1.90295,-1.12334 2.52535,-3.62199 l 2.26,-9.07276 q 0,0 0,0 0.006,-0.0243 0.0121,-0.0485 0.0423,-0.16981 0.0846,-0.33963 0.0483,-0.19407 0.0482,-0.40022 0.012,-0.1516 -0.0245,-0.31528 -0.0123,-0.15763 -0.073,-0.32736 -0.0364,-0.0606 -0.12139,-0.13329 -0.0789,-0.0969 -0.20633,-0.20598 -0.15168,-0.11507 -0.37614,-0.24828 -0.19415,-0.15142 -0.41257,-0.30888 -0.27298,-0.14529 -0.51565,-0.30879 -0.21842,-0.15747 -0.39436,-0.27859 l -0.49148,-0.40583 7.56872,1.88535 -0.55165,0.14599 q -0.22428,0.0729 -0.50925,0.0793 -0.26072,0.0123 -0.55174,0.0429 -0.44261,0.0186 -0.867,0.0674 -0.3941,0.0306 -0.55769,0.17025 -0.12725,0.0971 -0.27858,0.39436 -0.12103,0.27902 -0.25415,0.60655 -0.13916,0.3518 -0.24197,0.66112 -0.0725,0.29111 -0.10273,0.4124 l 0.006,-0.0243 z"
               inkscape:connector-curvature="0" />
          </g>
        </g>
      </g>
    </g>
  </g>
</svg>
