<?xml version="1.0" encoding="UTF-8" standalone="no"?>
<!-- Created with Inkscape (http://www.inkscape.org/) -->

<svg
   xmlns:dc="http://purl.org/dc/elements/1.1/"
   xmlns:cc="http://creativecommons.org/ns#"
   xmlns:rdf="http://www.w3.org/1999/02/22-rdf-syntax-ns#"
   xmlns:svg="http://www.w3.org/2000/svg"
   xmlns="http://www.w3.org/2000/svg"
   xmlns:sodipodi="http://sodipodi.sourceforge.net/DTD/sodipodi-0.dtd"
   xmlns:inkscape="http://www.inkscape.org/namespaces/inkscape"
   inkscape:version="0.91 r13725"
   version="1.1"
   id="svg2"
   viewBox="0 0 1800 1200.0001"
   height="1200"
   width="1800"
   sodipodi:docname="Chidike_hereva_commerce.svg"
   inkscape:export-filename="/home/eirexe/PepperCarrotCustom/PNG/Flags/Chidike.png"
   inkscape:export-xdpi="90"
   inkscape:export-ydpi="90">
  <sodipodi:namedview
     inkscape:window-maximized="1"
     inkscape:window-y="27"
     inkscape:window-x="1920"
     inkscape:window-height="1001"
     inkscape:window-width="1920"
     units="px"
     showgrid="false"
     inkscape:current-layer="layer1"
     inkscape:document-units="px"
     inkscape:cy="346.69481"
     inkscape:cx="103.10801"
     inkscape:zoom="0.3535534"
     inkscape:pageshadow="2"
     inkscape:pageopacity="0.0"
     borderopacity="1.0"
     bordercolor="#666666"
     pagecolor="#ffffff"
     id="base"
     showguides="true"
     inkscape:guide-bbox="true">
    <sodipodi:guide
       position="714.17783,600.00005"
       orientation="0,1"
       id="guide4827"
       inkscape:label=""
       inkscape:color="rgb(0,0,255)" />
    <sodipodi:guide
       position="900,690.13626"
       orientation="1,0"
       id="guide4829"
       inkscape:label=""
       inkscape:color="rgb(0,0,255)" />
    <sodipodi:guide
       position="200,806.00005"
       orientation="1,0"
       id="guide4838"
       inkscape:label=""
       inkscape:color="rgb(0,0,255)" />
    <sodipodi:guide
       position="1600,1146.0001"
       orientation="1,0"
       id="guide4840"
       inkscape:label=""
       inkscape:color="rgb(0,0,255)" />
  </sodipodi:namedview>
  <defs
     id="defs4" />
  <metadata
     id="metadata7">
    <rdf:RDF>
      <cc:Work
         rdf:about="">
        <dc:format>image/svg+xml</dc:format>
        <dc:type
           rdf:resource="http://purl.org/dc/dcmitype/StillImage" />
        <dc:title />
      </cc:Work>
    </rdf:RDF>
  </metadata>
  <g
     inkscape:groupmode="layer"
     id="layer2"
     inkscape:label="Layer 2" />
  <g
     inkscape:label="Layer 1"
     inkscape:groupmode="layer"
     id="layer1"
     transform="translate(0,147.63824)">
    <rect
       style="fill:#2e2b52;fill-opacity:1;stroke:none;stroke-width:4.94243383;stroke-miterlimit:4;stroke-dasharray:none;stroke-opacity:1;shape-rendering:crispEdges"
       id="rect4259"
       width="1800.0001"
       height="1200.0001"
       x="-6.1035156e-05"
       y="-147.63823"
       inkscape:export-xdpi="224.35829"
       inkscape:export-ydpi="224.35829" />
    <g
       id="g4828"
       transform="matrix(1.3113541,0,0,1.3113541,-279.9199,-29.007759)"
       style="stroke-width:2.00000024;stroke-miterlimit:4;stroke-dasharray:none;stroke:none"
       inkscape:export-xdpi="224.35829"
       inkscape:export-ydpi="224.35829" />
    <rect
       style="fill:#742e46;fill-opacity:1;stroke:none;stroke-width:2;stroke-linecap:butt;stroke-miterlimit:4;stroke-dasharray:none;stroke-dashoffset:0;stroke-opacity:1"
       id="rect4842"
       width="300.00003"
       height="1200.0001"
       x="-6.1035164e-05"
       y="-147.63821" />
    <rect
       style="fill:#742e46;fill-opacity:1;stroke:none;stroke-width:2;stroke-linecap:butt;stroke-miterlimit:4;stroke-dasharray:none;stroke-dashoffset:0;stroke-opacity:1"
       id="rect4842-3"
       width="300.00003"
       height="1200.0002"
       x="1500"
       y="-147.63834" />
    <rect
       style="fill:#c12c42;fill-opacity:1;stroke:none;stroke-width:2;stroke-linecap:butt;stroke-miterlimit:4;stroke-dasharray:none;stroke-dashoffset:0;stroke-opacity:1"
       id="rect4859"
       width="32.000004"
       height="1200.0001"
       x="223.99995"
       y="-147.63823" />
    <rect
       style="fill:#c12c42;fill-opacity:1;stroke:none;stroke-width:2;stroke-linecap:butt;stroke-miterlimit:4;stroke-dasharray:none;stroke-dashoffset:0;stroke-opacity:1"
       id="rect4859-6"
       width="32.000004"
       height="1200.0002"
       x="1534"
       y="-147.63834" />
    <g
       id="g4303"
       transform="matrix(2.2575245,0,0,2.2575245,-1131.772,-568.85606)">
      <g
         id="g4250">
        <g
           id="g4229">
          <g
             transform="translate(103.09063,1.5255821e-6)"
             id="g4299">
            <path
               style="fill:#ffd34e;fill-opacity:1;stroke:none;stroke-width:2;stroke-linecap:butt;stroke-miterlimit:4;stroke-dasharray:none;stroke-dashoffset:0;stroke-opacity:1"
               d="M 711.34955,326.4966 A 125.86501,125.865 0 0 0 585.48432,452.36183 125.86501,125.865 0 0 0 711.34955,578.22707 125.86501,125.865 0 0 0 837.21478,452.36183 125.86501,125.865 0 0 0 711.34955,326.4966 Z m 0,18.43359 A 107.4325,107.4325 0 0 1 818.78119,452.36183 107.4325,107.4325 0 0 1 711.34955,559.79347 107.4325,107.4325 0 0 1 603.91596,452.36183 107.4325,107.4325 0 0 1 711.34955,344.93019 Z"
               id="path4258"
               inkscape:connector-curvature="0" />
            <path
               inkscape:connector-curvature="0"
               style="fill:#ffd34e;fill-opacity:1;stroke:none;stroke-width:2;stroke-linecap:butt;stroke-miterlimit:4;stroke-dasharray:none;stroke-dashoffset:0;stroke-opacity:1"
               d="m 882.46923,326.49658 c -34.75675,-6e-5 -66.22302,14.08788 -89.00013,36.86501 -22.7771,22.77714 -36.86504,54.24348 -36.8651,89.00023 -7e-5,34.75675 14.08786,66.2231 36.865,89.00024 22.77714,22.77714 54.24348,36.86508 89.00023,36.86502 69.51348,-1.2e-4 125.86527,-56.35178 125.86517,-125.86526 1e-4,-69.51348 -56.35169,-125.86512 -125.86517,-125.86524 z m 0,18.43359 c 59.33268,6e-4 107.43123,48.09897 107.4317,107.43165 -4.7e-4,59.33268 -48.09902,107.43105 -107.4317,107.43165 -29.66671,3e-4 -56.52499,-12.02426 -75.96665,-31.46557 -19.44166,-19.44131 -31.4667,-46.29937 -31.46694,-75.96608 2.3e-4,-29.66671 12.02528,-56.52477 31.46694,-75.96608 19.44166,-19.44131 46.29994,-31.46587 75.96665,-31.46557 z"
               id="path4258-3"
               sodipodi:nodetypes="sssssssscsscss" />
          </g>
        </g>
      </g>
    </g>
  </g>
</svg>
