<?xml version="1.0" encoding="UTF-8" standalone="no"?>
<!-- Created with Inkscape (http://www.inkscape.org/) -->

<svg
   xmlns:dc="http://purl.org/dc/elements/1.1/"
   xmlns:cc="http://creativecommons.org/ns#"
   xmlns:rdf="http://www.w3.org/1999/02/22-rdf-syntax-ns#"
   xmlns:svg="http://www.w3.org/2000/svg"
   xmlns="http://www.w3.org/2000/svg"
   xmlns:sodipodi="http://sodipodi.sourceforge.net/DTD/sodipodi-0.dtd"
   xmlns:inkscape="http://www.inkscape.org/namespaces/inkscape"
   width="1800"
   height="1200"
   viewBox="0 0 1800 1200"
   id="svg16483"
   version="1.1"
   inkscape:version="0.91 r13725"
   sodipodi:docname="Flag of the land of the settling moons.svg">
  <defs
     id="defs16485" />
  <sodipodi:namedview
     id="base"
     pagecolor="#ffffff"
     bordercolor="#666666"
     borderopacity="1.0"
     inkscape:pageopacity="0.0"
     inkscape:pageshadow="2"
     inkscape:zoom="0.12374369"
     inkscape:cx="-1646.8498"
     inkscape:cy="190.48084"
     inkscape:document-units="px"
     inkscape:current-layer="g17049"
     showgrid="false"
     units="px"
     inkscape:window-width="1920"
     inkscape:window-height="1011"
     inkscape:window-x="1920"
     inkscape:window-y="30"
     inkscape:window-maximized="1" />
  <metadata
     id="metadata16488">
    <rdf:RDF>
      <cc:Work
         rdf:about="">
        <dc:format>image/svg+xml</dc:format>
        <dc:type
           rdf:resource="http://purl.org/dc/dcmitype/StillImage" />
        <dc:title></dc:title>
      </cc:Work>
    </rdf:RDF>
  </metadata>
  <g
     inkscape:label="Layer 1"
     inkscape:groupmode="layer"
     id="layer1"
     transform="translate(0,147.63784)">
    <rect
       style="fill:#081921;fill-opacity:1;stroke:none;stroke-width:2;stroke-linecap:butt;stroke-miterlimit:4;stroke-dasharray:none;stroke-dashoffset:0;stroke-opacity:1"
       id="rect16171"
       width="1800"
       height="1200"
       x="0"
       y="-147.63782" />
    <rect
       y="-147.63783"
       x="0"
       height="600"
       width="1800"
       id="rect12096"
       style="fill:#4a4e59;fill-opacity:0.94117647;stroke:none;stroke-width:2;stroke-linecap:butt;stroke-miterlimit:4;stroke-dasharray:none;stroke-dashoffset:0;stroke-opacity:1" />
    <g
       id="g17049"
       transform="translate(35.19629,23.619708)">
      <g
         id="g17690"
         transform="translate(-47.477188,0)">
        <path
           style="fill:#fec073;fill-opacity:1"
           d="M 303.90591,241.3594 C 286.90993,238.95397 271.58704,234.32433 256.78879,227.12352 209.8406,204.27872 178.21236,158.82067 172.78025,106.38115 171.74232,96.36081 172.39387,76.44919 174.0743,66.83182 177.8806,45.04786 185.79259,25.06445 197.58884,7.4418104 210.72346,-12.18053 229.9514,-29.80907 250.10508,-40.70593 c 5.59242,-3.02371 5.88068,-3.10746 5.44303,-1.5808 -2.14876,7.49918 -4.53789,18.17177 -5.48526,24.50691 -1.56194,10.4434504 -1.55711,30.71015 0.021,41.44309 4.81628,32.98674 19.49729,62.57102 42.52711,85.69847 12.38476,12.43703 24.1747,21.11668 38.5145,28.35345 22.59891,11.40505 44.32334,16.59887 69.34833,16.57978 20.80395,-0.0168 40.1485,-3.90999 58.57674,-11.79188 3.7307,-1.59561 6.8758,-2.80831 6.989,-2.69495 0.1135,0.11324 -0.7478,2.70298 -1.9136,5.75478 -16.85796,44.12947 -53.52771,77.79597 -99.15579,91.03454 -13.85488,4.01987 -22.6113,5.23569 -39.48542,5.48263 -10.39379,0.15212 -16.94828,-0.067 -21.56769,-0.72069 z"
           id="path16199"
           inkscape:connector-curvature="0" />
        <path
           style="fill:#fec073;fill-opacity:1"
           d="m 751.55965,570.66913 c -16.99596,-2.40543 -32.31885,-7.03507 -47.1171,-14.23588 -46.94819,-22.8448 -78.57643,-68.30284 -84.00854,-120.74237 -1.03792,-10.02033 -0.38638,-29.93195 1.29406,-39.54933 3.80629,-21.78394 11.71829,-41.76736 23.51454,-59.39 13.13462,-19.62235 32.36256,-37.25089 52.51622,-48.14775 5.59242,-3.02371 5.88069,-3.10745 5.44303,-1.5808 -2.14876,7.49918 -4.53789,18.17177 -5.48526,24.50691 -1.56193,10.44345 -1.5571,30.71016 0.021,41.44309 4.81627,32.98675 19.49729,62.57103 42.52711,85.69848 12.38475,12.43703 24.17469,21.11668 38.51449,28.35345 22.59889,11.40505 44.32332,16.59887 69.34831,16.57978 20.80392,-0.0168 40.14852,-3.90999 58.57672,-11.79189 3.7307,-1.59561 6.8758,-2.8083 6.989,-2.69495 0.1135,0.11325 -0.7477,2.70298 -1.9136,5.75479 -16.858,44.12947 -53.5277,77.79595 -99.15577,91.03452 -13.85488,4.01987 -22.6113,5.23569 -39.4854,5.48264 -10.39378,0.15212 -16.94827,-0.067 -21.56769,-0.72069 z"
           id="path16199-1"
           inkscape:connector-curvature="0" />
        <path
           style="fill:#fec073;fill-opacity:1"
           d="m 303.90584,881.79607 c -16.9959,-2.4054 -32.3188,-7.035 -47.1171,-14.2358 -46.9482,-22.84483 -78.5764,-68.30289 -84.0085,-120.7424 -1.0379,-10.02034 -0.3864,-29.93196 1.294,-39.54933 3.8063,-21.78396 11.7183,-41.76737 23.5146,-59.39 13.1346,-19.62236 32.3625,-37.25089 52.5162,-48.14775 5.5924,-3.02371 5.8807,-3.10747 5.443,-1.5808 -2.1487,7.49917 -4.5379,18.17177 -5.4852,24.50691 -1.562,10.44345 -1.5571,30.71015 0.021,41.44309 4.8163,32.98675 19.4973,62.57102 42.5271,85.69848 12.3847,12.43703 24.1747,21.11667 38.5145,28.35345 22.5989,11.40504 44.3233,16.59886 69.3483,16.57976 20.804,-0.0168 40.1485,-3.90998 58.5768,-11.79187 3.7307,-1.59561 6.8758,-2.80831 6.989,-2.69496 0.1135,0.11325 -0.7478,2.70299 -1.9136,5.75479 -16.858,44.12947 -53.5278,77.79593 -99.1559,91.03453 -13.8548,4.0199 -22.6112,5.2357 -39.4854,5.4826 -10.3937,0.1522 -16.9482,-0.067 -21.5676,-0.7207 z"
           id="path16199-1-2"
           inkscape:connector-curvature="0" />
      </g>
    </g>
  </g>
</svg>
