<?xml version="1.0" encoding="UTF-8" standalone="no"?>
<!-- Created with Inkscape (http://www.inkscape.org/) -->

<svg
   xmlns:dc="http://purl.org/dc/elements/1.1/"
   xmlns:cc="http://creativecommons.org/ns#"
   xmlns:rdf="http://www.w3.org/1999/02/22-rdf-syntax-ns#"
   xmlns:svg="http://www.w3.org/2000/svg"
   xmlns="http://www.w3.org/2000/svg"
   xmlns:xlink="http://www.w3.org/1999/xlink"
   xmlns:sodipodi="http://sodipodi.sourceforge.net/DTD/sodipodi-0.dtd"
   xmlns:inkscape="http://www.inkscape.org/namespaces/inkscape"
   width="1800"
   height="1200"
   viewBox="0 0 1800 1200.0001"
   id="svg4136"
   version="1.1"
   inkscape:version="0.91 r13725"
   sodipodi:docname="King acren's kingdom.svg">
  <sodipodi:namedview
     inkscape:guide-bbox="true"
     showguides="true"
     id="base"
     pagecolor="#ffffff"
     bordercolor="#666666"
     borderopacity="1.0"
     inkscape:pageopacity="0.0"
     inkscape:pageshadow="2"
     inkscape:zoom="0.35"
     inkscape:cx="806.2189"
     inkscape:cy="405.34146"
     inkscape:document-units="px"
     inkscape:current-layer="layer1"
     showgrid="false"
     units="px"
     inkscape:window-width="1920"
     inkscape:window-height="1041"
     inkscape:window-x="0"
     inkscape:window-y="0"
     inkscape:window-maximized="1">
    <sodipodi:guide
       position="887.14286,640.00006"
       orientation="1,0"
       id="guide5307" />
  </sodipodi:namedview>
  <defs
     id="defs4138">
    <inkscape:path-effect
       effect="skeletal"
       id="path-effect15614"
       is_visible="true"
       pattern="M 0.70656185,124.67796 47.124962,0.89558782 98.232082,124.67796 c 0,0 -33.30013,-23.48051 -50.16936,-23.44365 -16.56533,0.0361 -47.35616015,23.44365 -47.35616015,23.44365 z"
       copytype="repeated"
       prop_scale="1"
       scale_y_rel="false"
       spacing="100"
       normal_offset="0"
       tang_offset="0"
       prop_units="false"
       vertical_pattern="false"
       fuse_tolerance="0" />
    <linearGradient
       id="linearGradient3865">
      <stop
         id="stop3867"
         offset="0"
         style="stop-color:#e7e6c6;stop-opacity:1;" />
      <stop
         style="stop-color:#c9b136;stop-opacity:1;"
         offset="0.5"
         id="stop3873" />
      <stop
         id="stop3869"
         offset="1"
         style="stop-color:#f2f8be;stop-opacity:1;" />
    </linearGradient>
    <linearGradient
       inkscape:collect="always"
       xlink:href="#linearGradient3865"
       id="linearGradient5257"
       x1="43.865437"
       y1="88.168259"
       x2="205.96178"
       y2="88.168259"
       gradientUnits="userSpaceOnUse" />
    <linearGradient
       inkscape:collect="always"
       xlink:href="#linearGradient3865"
       id="linearGradient5279"
       x1="150.68958"
       y1="9.4405642"
       x2="166.01527"
       y2="9.4405642"
       gradientUnits="userSpaceOnUse" />
    <linearGradient
       inkscape:collect="always"
       xlink:href="#linearGradient3865"
       id="linearGradient5287"
       x1="118.77681"
       y1="26.506603"
       x2="135.19011"
       y2="26.506603"
       gradientUnits="userSpaceOnUse" />
    <linearGradient
       inkscape:collect="always"
       xlink:href="#linearGradient3865"
       id="linearGradient5295"
       x1="114.28396"
       y1="25.36614"
       x2="139.51369"
       y2="25.36614"
       gradientUnits="userSpaceOnUse" />
    <linearGradient
       inkscape:collect="always"
       xlink:href="#linearGradient3865"
       id="linearGradient5303"
       x1="108.59598"
       y1="52.477516"
       x2="120.10511"
       y2="52.477516"
       gradientUnits="userSpaceOnUse" />
    <linearGradient
       inkscape:collect="always"
       xlink:href="#linearGradient3865"
       id="linearGradient15627"
       x1="241.25388"
       y1="450.74142"
       x2="1523.1458"
       y2="450.74142"
       gradientUnits="userSpaceOnUse" />
    <linearGradient
       inkscape:collect="always"
       xlink:href="#linearGradient3865"
       id="linearGradient15643"
       x1="480.64139"
       y1="-302.68796"
       x2="631.40863"
       y2="-302.68796"
       gradientUnits="userSpaceOnUse"
       gradientTransform="matrix(0.65642163,0,0,0.65642163,191.03815,-103.99703)" />
  </defs>
  <metadata
     id="metadata4141">
    <rdf:RDF>
      <cc:Work
         rdf:about="">
        <dc:format>image/svg+xml</dc:format>
        <dc:type
           rdf:resource="http://purl.org/dc/dcmitype/StillImage" />
        <dc:title />
      </cc:Work>
    </rdf:RDF>
  </metadata>
  <g
     transform="translate(0,147.63824)"
     id="layer1"
     inkscape:groupmode="layer"
     inkscape:label="Layer 1">
    <rect
       y="-147.63826"
       x="-6.1035156e-05"
       height="1200.0001"
       width="1800.0001"
       id="rect12122"
       style="fill:#2e0f42;fill-opacity:1;stroke:none;stroke-width:2;stroke-linecap:butt;stroke-miterlimit:4;stroke-dasharray:none;stroke-dashoffset:0;stroke-opacity:1" />
    <rect
       style="fill:#a66bcc;fill-opacity:1;stroke:none;stroke-width:2;stroke-linecap:butt;stroke-miterlimit:4;stroke-dasharray:none;stroke-dashoffset:0;stroke-opacity:1"
       id="rect12124"
       width="1800.0001"
       height="600.00006"
       x="-6.1035156e-05"
       y="152.3609" />
    <path
       style="fill:url(#linearGradient15643);fill-opacity:1;fill-rule:evenodd;stroke:#8a630e;stroke-width:0.65642166px;stroke-linecap:butt;stroke-linejoin:miter;stroke-opacity:1"
       d="m 507.24812,-240.8237 46.4184,-123.78237 51.10712,123.78237 c 0,0 -33.30013,-23.48051 -50.16936,-23.44365 -16.56533,0.0361 -47.35616,23.44365 -47.35616,23.44365 z"
       id="path5305"
       inkscape:connector-curvature="0"
       sodipodi:nodetypes="cccsc" />
    <g
       id="g15683"
       transform="matrix(0.96335482,0,0,0.96335482,32.566672,16.586333)">
      <g
         id="g3066"
         transform="matrix(1.9287256,0,0,1.9287256,-924.02868,1035.5986)">
        <g
           transform="matrix(-2.4337828,0,0,2.4337828,1249.7296,-508.52223)"
           id="g5202">
          <path
             inkscape:connector-curvature="0"
             id="path2476-08"
             style="fill:#ffffff;fill-rule:evenodd;stroke:#8a630e;stroke-width:2;stroke-linecap:round;stroke-linejoin:round;stroke-miterlimit:4;stroke-dasharray:none;stroke-opacity:1"
             d="m 120.12474,74.041427 c -0.028,-2.818796 -0.84674,-4.674739 -0.054,-8.493116 2.41712,3.385572 6.05098,4.469114 9.17879,6.51011" />
          <path
             inkscape:connector-curvature="0"
             id="path3447-39"
             style="fill:#2b5df2;fill-opacity:1;fill-rule:evenodd;stroke:#8a630e;stroke-width:2;stroke-linecap:round;stroke-linejoin:round;stroke-miterlimit:4;stroke-dasharray:none;stroke-opacity:1"
             d="m 146.10731,46.543444 c -23.12764,3.950914 -37.4834,28.775368 -61.261149,13.480402 16.124639,25.424687 36.795049,-3.26996 63.807369,-4.678872 l -2.54622,-8.80153 z" />
          <path
             inkscape:connector-curvature="0"
             id="path2474-3"
             style="fill:url(#linearGradient5303);fill-opacity:1;fill-rule:evenodd;stroke:#8a630e;stroke-width:2;stroke-linecap:round;stroke-linejoin:round;stroke-miterlimit:4;stroke-dasharray:none;stroke-opacity:1"
             d="m 109.59922,50.341763 c 0.77357,3.401352 3.10876,5.755579 6.66148,7.293423 -2.1321,-4.152309 1.056,-7.063452 2.83749,-10.302743" />
          <path
             inkscape:connector-curvature="0"
             id="path2462-9"
             style="fill:url(#linearGradient5257);fill-opacity:1;fill-rule:evenodd;stroke:#8a630e;stroke-width:2;stroke-linecap:round;stroke-linejoin:round;stroke-miterlimit:4;stroke-dasharray:none;stroke-opacity:1"
             d="m 143.05931,130.24672 c 0,0 3.68807,16.15314 -13.35825,36.10365 24.11739,-6.56599 19.66757,-31.80488 19.66757,-31.80488 1.50167,4.09385 5.20943,18.44315 -5.95879,31.05945 18.69228,-5.13286 26.43387,-21.99535 30.03789,-35.8215 -3.61564,13.63771 -0.20804,21.30076 20.93298,13.87803 -21.80244,-4.77255 0.70325,-17.09275 -8.20034,-32.23737 4.61413,8.48972 11.70323,3.73721 18.00944,3.17355 -20.15398,-5.853 -9.60221,-19.231894 -8.94873,-30.184743 L 185.79412,65.67625 c 4.64972,12.151868 12.20041,7.239412 19.16804,5.756726 -14.27678,-2.878695 -4.75025,-21.802815 -22.08359,-30.165225 6.30567,2.506138 12.69984,6.012052 18.48169,2.598428 -13.71673,-1.712612 -9.47362,-15.64454 -22.01156,-18.841044 7.07204,0.385562 11.33346,-2.083618 16.53867,-3.594202 -5.98918,-0.993625 -11.42303,0.568233 -18.1075,-3.62474 L 167.3444,8.2617108 141.59593,7.9512339 c -6.38826,1.852063 -12.47122,4.3178571 -17.45613,8.9910061 -4.642,2.565231 -10.59037,4.490814 -10.17132,9.534095 -9.90091,2.016219 -28.60181,13.04018 -14.154398,11.817154 0.671658,10.3277 3.239988,13.150568 8.791608,12.972915 12.46094,2.054805 15.08082,-7.001818 24.21067,-9.513918 20.54331,5.397546 12.43869,18.791719 6.48441,24.341636 -6.47186,6.032365 -18.39664,3.289216 -18.39664,3.289216 -3.73929,5.695051 -3.24299,8.894646 1.48881,9.598794 5.81208,4.740669 7.49341,0.271686 10.46146,-1.328504 20.38879,-0.442611 17.26346,-10.700405 24.45081,-16.653509 -5.33678,8.594751 4.06286,26.845734 -17.80433,32.357442 -11.29216,2.8514 -8.92774,3.715531 -20.04415,3.904063 C 105.34952,97.500879 98.080073,96.102838 91.833539,90.84281 86.019389,85.94688 73.891554,77.137556 80.903415,60.612079 68.84899,75.870393 61.192142,92.301409 87.020646,102.41509 c -21.67428,7.3013 -19.411791,-6.49144 -35.565465,-17.472526 3.60245,27.373366 23.449013,42.162176 44.328366,28.810336 -9.231513,15.54225 -20.991626,14.41979 -35.227937,9.10885 9.765556,16.29537 24.554203,22.00153 33.557131,12.66144 -3.85255,3.88276 -14.373211,17.35388 -23.449733,23.74766 18.142252,5.61058 41.639392,-12.22674 41.639392,-12.22674 -0.0731,10.05252 -20.223143,21.34117 -20.223143,21.34117 43.391583,-0.54209 51.122713,-30.91968 50.980053,-38.13856 z"
             sodipodi:nodetypes="cccccccccccccccccccccccscccccsscccccccssc" />
          <path
             inkscape:connector-curvature="0"
             id="path2472-67"
             style="fill:url(#linearGradient5279);fill-opacity:1;fill-rule:evenodd;stroke:#8a630e;stroke-width:2;stroke-linecap:round;stroke-linejoin:round;stroke-miterlimit:4;stroke-dasharray:none;stroke-opacity:1"
             d="M 152.07141,16.305779 C 149.67068,6.7846361 158.4888,4.7012882 164.8711,1.0030821 c -0.17293,6.3288295 1.3337,14.3635819 -2.60535,16.8672019" />
          <path
             inkscape:connector-curvature="0"
             id="path3449-9"
             style="fill:url(#linearGradient5295);fill-opacity:1;fill-rule:evenodd;stroke:#8a630e;stroke-width:2;stroke-linecap:round;stroke-linejoin:round;stroke-miterlimit:4;stroke-dasharray:none;stroke-opacity:1"
             d="m 115.29383,27.179852 c 3.46233,3.62469 5.47232,0.566359 7.80065,-1.027028 5.53686,-7.741213 10.40074,-3.071369 15.40602,-1.009334"
             sodipodi:nodetypes="ccc" />
          <path
             inkscape:connector-curvature="0"
             id="path3451-9"
             style="fill:url(#linearGradient5287);fill-opacity:1;fill-rule:evenodd;stroke:#8a630e;stroke-width:2;stroke-linecap:round;stroke-linejoin:round;stroke-miterlimit:4;stroke-dasharray:none;stroke-opacity:1"
             d="m 119.77669,29.402343 c 3.05293,1.417038 4.84133,1.873184 7.34078,0.743392 4.0828,-1.700477 5.085,-4.305923 7.07266,-4.376897 -0.36595,-1.679807 -0.89945,-3.263554 -3.72417,-3.534 -6.28546,2.101521 -5.74885,4.264855 -10.68927,7.167505 z" />
          <path
             sodipodi:nodetypes="cccccscsc"
             inkscape:connector-curvature="0"
             id="path3613"
             d="m 160.43022,22.380506 c 4.49311,0.475916 6.85876,11.350717 -0.17453,12.829553 1.92989,1.404172 4.98809,3.310222 7.94212,0 0.37444,4.555865 -4.61528,11.58418 -14.27219,12.305901 2.19557,0.960697 5.62727,1.395522 7.63922,0.960035 -3.50054,2.678759 1.0837,13.979078 0.87275,16.58242 -0.28798,3.554124 -2.88883,7.723277 -6.28385,8.291211 6.0859,1.040598 9.57553,-4.333857 10.49247,-8.260626 1.2236,-5.239985 -2.61698,-11.343755 1.28977,-15.303866"
             style="fill:none;stroke:#8a630e;stroke-width:2;stroke-linecap:butt;stroke-linejoin:miter;stroke-miterlimit:4;stroke-dasharray:none;stroke-opacity:1" />
        </g>
      </g>
      <path
         inkscape:connector-curvature="0"
         inkscape:original-d="M 1430.3753,451.38883 A 544.6983,544.6983 0 0 1 885.67708,996.08714 544.6983,544.6983 0 0 1 340.97871,451.38883 544.6983,544.6983 0 0 1 885.67708,-93.309486 544.6983,544.6983 0 0 1 1430.3753,451.38883 Z"
         inkscape:path-effect="#path-effect15614"
         id="path5309"
         d="m 1368.4841,451.38883 c 41.4626,13.43611 81.8076,30.91971 120.7738,52.11483 -42.7302,14.98697 -85.7378,25.51098 -128.6109,31.88423 0,0 7.1282,-5.88505 14.3384,-14.122 7.2639,-8.29822 14.3554,-18.73821 15.0774,-26.57259 0.7086,-7.68876 -4.3433,-18.71557 -9.991,-27.71952 -5.6037,-8.93392 -11.5877,-15.58495 -11.5877,-15.58495 z m -33.3339,167.24204 c 32.5422,28.07079 63.2785,59.18301 91.9476,93.00069 -44.8921,-1.96631 -88.9363,-7.65534 -131.7207,-16.75491 0,0 8.9043,-3.08896 18.7444,-8.29535 9.9111,-5.24398 20.4541,-12.49539 24.0835,-19.55195 3.5582,-6.91783 3.093,-19.11457 1.4149,-29.57614 -1.6685,-10.40194 -4.4697,-18.82234 -4.4697,-18.82234 z m -93.6474,147.16999 c 21.3685,37.74835 40.2429,77.53207 56.3616,119.01518 -41.9604,-16.80291 -81.9475,-36.58831 -119.5495,-59.04401 0,0 9.4406,-0.0776 20.4859,-1.85507 11.1159,-1.78879 23.539,-5.27142 29.3222,-10.80977 5.6703,-5.43013 9.3,-17.23324 11.2345,-27.79572 1.9235,-10.50277 2.1453,-19.51061 2.1453,-19.51061 z m -136.7022,109.83906 c 7.9417,42.46879 12.7008,85.96688 14.016,130.15828 -33.9351,-29.52281 -64.7714,-61.2879 -92.0972,-94.98306 0,0 8.7369,3.14724 19.5629,5.19887 10.8987,2.06543 23.5895,2.93559 30.7934,-0.34608 7.0617,-3.21687 14.261,-13.08038 19.4677,-22.37826 5.1733,-9.23815 8.2572,-17.64975 8.2572,-17.64975 z m -162.49808,55.24924 c -7.73836,42.23212 -19.34771,84.48744 -35.08937,126.43004 -7.77517,-14.9879 -14.96101,-30.1853 -21.53607,-45.5761 -11.02789,-25.88424 -20.2536,-51.96348 -27.75389,-78.13644 0,0 13.43215,12.22725 27.75388,19.04019 6.03444,2.99234 12.01999,4.96117 16.64474,4.80584 7.72677,-0.25946 17.98198,-6.67455 26.11479,-13.32375 8.08198,-6.60765 13.86592,-13.23978 13.86592,-13.23978 z M 772.52417,919.45051 c -23.76669,35.7503 -50.90846,69.92298 -81.08934,102.25669 -3.42154,-44.73961 -2.87487,-89.00453 1.32783,-132.38287 0,0 4.04019,8.45259 10.29573,17.57846 6.30226,9.19402 14.67359,18.76453 22.07109,21.51426 7.25322,2.69615 19.2347,0.76168 29.36349,-2.19199 10.06675,-2.93559 18.0312,-6.77455 18.0312,-6.77455 z M 616.78465,843.89286 c -35.08824,25.32396 -72.5455,48.38194 -112.03581,68.91262 12.11704,-43.49722 27.46206,-85.39435 45.72287,-125.27954 0,0 1.10007,9.40018 4.05896,20.20361 2.97844,10.87483 7.77661,22.85131 13.89985,28.0024 6.0031,5.05009 18.10975,7.37909 28.78927,8.15366 10.62069,0.77031 19.56486,0.007 19.56486,0.007 z M 492.65228,719.5567 c -41.45269,12.64438 -84.26832,22.33441 -128.11092,28.8088 25.53893,-37.16111 53.56563,-71.59677 83.76788,-102.89513 0,0 -2.05415,9.10762 -2.79147,20.1643 -0.74203,11.12745 -0.10578,23.91 4.00709,30.72303 4.03247,6.67994 14.70822,12.75401 24.57801,16.91305 9.80886,4.13336 18.54941,6.28595 18.54941,6.28595 z M 417.38592,563.70091 c -42.86,-2.28844 -86.07687,-8.21959 -129.31466,-18.05474 36.84416,-25.73131 75.43585,-47.61182 115.46287,-65.22967 0,0 -5.42128,7.57659 -10.25554,17.46053 -4.87395,9.96511 -8.95883,21.92736 -7.6072,29.67616 1.32356,7.58819 9.04787,16.88392 16.7297,24.08615 7.63154,7.15506 14.98483,12.06157 14.98483,12.06157 z m -11.09575,-169.7976 c -38.71057,-18.91736 -76.07182,-41.54345 -111.82244,-67.54232 44.02694,-9.0422 87.95235,-13.87069 131.36441,-14.79768 0,0 -7.86456,4.96769 -16.1195,12.22862 -8.31745,7.31593 -16.74428,16.7444 -18.53058,24.40089 -1.75212,7.50976 1.70383,19.10401 5.97334,28.75081 4.24042,9.58108 9.13477,16.95968 9.13477,16.95968 z m 55.56955,-162.41079 c -29.0315,-31.88291 -56.02532,-66.4685 -80.72014,-103.42078 44.47379,7.19836 87.7207,17.87019 129.3289,31.70331 0,0 -9.22337,2.09896 -19.6283,6.19535 -10.47675,4.12467 -21.83048,10.17322 -26.26819,16.80059 -4.35045,6.49694 -5.32141,18.73573 -4.8984,29.38278 0.42067,10.58844 2.18613,19.33875 2.18613,19.33875 z M 571.93158,94.965083 C 554.83239,55.073734 540.45924,13.485782 529.07345,-29.462801 c 39.82696,21.3222381 77.30169,45.377729 112.01234,71.854273 0,0 -9.34204,-0.984455 -20.47263,-0.451562 -11.20075,0.536251 -23.8957,2.617119 -30.2383,7.47875 -6.21902,4.766836 -11.1098,16.087654 -14.18386,26.377729 -3.05593,10.229405 -4.25942,19.168694 -4.25942,19.168694 z M 719.24686,1.5798666 c -2.91365,-42.9426596 -2.41288,-86.5758546 1.7636,-130.5636166 30.08645,33.329446 56.69531,68.651911 79.41473,105.655204 0,0 -8.22139,-4.280974 -18.65251,-7.712121 -10.5076,-3.456302 -22.92176,-5.916926 -30.44089,-3.564608 -7.36785,2.304936 -15.65136,11.174264 -21.88304,19.735627 -6.19069,8.5050407 -10.20189,16.4495146 -10.20189,16.4495146 z M 886.54662,-31.430362 c 13.52281,-41.423025 31.08801,-81.725018 52.35964,-120.644668 14.89567,42.75398 25.33214,85.779655 31.62161,128.66519 0,0 -5.87143,-7.140303 -14.09402,-14.367477 -8.28378,-7.280965 -18.70899,-14.393835 -26.54134,-15.132534 -7.68667,-0.725008 -18.72332,4.302564 -27.7381,9.929152 -8.94481,5.582922 -15.60779,11.550337 -15.60779,11.550337 z M 1053.7304,2.2528373 c 28.1324,-32.4912243 59.3011,-63.1730533 93.1701,-91.7841743 -2.0469,44.890114 -7.8127,88.92657315 -16.9853,131.697532 0,0 -3.0743,-8.910146 -8.2643,-18.759925 -5.2274,-9.920825 -12.4612,-20.4773731 -19.5119,-24.11961665 -6.9121,-3.57068845 -19.1108,-3.12752375 -29.5763,-1.46866365 -10.4059,1.64941353 -18.8323,4.4348476 -18.8323,4.4348476 z M 1200.7547,96.16214 c 37.7848,-21.306186 77.5998,-40.114614 119.1091,-56.163973 -16.8727,41.932571 -36.7242,81.886133 -59.2422,119.448833 0,0 -0.062,-9.44014 -1.8208,-20.48792 -1.7703,-11.11835 -5.2323,-23.54694 -10.7611,-29.33919 -5.4208,-5.67913 -17.2179,-9.32825 -27.7774,-11.280198 -10.4998,-1.940906 -19.5076,-2.177552 -19.5076,-2.177552 z m 109.6058,136.87652 c 42.4801,-7.86791 85.9844,-12.5497 130.1769,-13.78406 -29.5819,33.88135 -61.4024,64.65832 -95.1491,91.91908 0,0 3.1641,-8.73024 5.2362,-19.55144 2.086,-10.89408 2.9796,-23.58204 -0.2887,-30.79125 -3.2037,-7.06694 -13.0535,-14.28304 -22.3415,-19.50547 -9.2283,-5.18886 -17.6338,-8.28686 -17.6338,-8.28686 z"
         style="fill:url(#linearGradient15627);fill-opacity:1;stroke:#8a630e;stroke-width:4.79608583;stroke-linecap:butt;stroke-miterlimit:4;stroke-dasharray:none;stroke-dashoffset:0;stroke-opacity:1" />
    </g>
  </g>
</svg>
